%
M48
M72
T01C0.02200
T02C0.02362
T03C0.02400
T04C0.02756
T05C0.03200
T06C0.03346
T07C0.03543
T08C0.03740
T09C0.04000
T10C0.04331
T11C0.07300
T12C0.12598
T13C0.13000
%
T01
X354000Y219100
T02
X269400Y233550
X259400Y233550
X249400Y233550
X433000Y338700
X443000Y338700
X453000Y338700
X673000Y339550
X683000Y339550
X693000Y339550
X912700Y338550
X922700Y338550
X932700Y338550
X972350Y213150
X982350Y213150
X992350Y213150
X752300Y213050
X742300Y213050
X732300Y213050
X513800Y212850
X503800Y212850
X493800Y212850
T03
X321900Y215050
X322400Y240550
X310200Y266350
X329400Y272550
X280650Y244300
X231400Y254550
X220400Y245550
X215900Y241050
X217900Y266050
X236900Y207550
X187900Y336550
T04
X191679Y314950
X201521Y314950
X307300Y356407
X322071Y355829
X322071Y365671
X307300Y376093
X345471Y365771
X345471Y355929
X360579Y347150
X370421Y347150
X370421Y373150
X360579Y373150
X360157Y387150
X360157Y394650
X379843Y394650
X379843Y387150
X394157Y389400
X413843Y389400
X446157Y388400
X465843Y388400
X498157Y387900
X517843Y387900
X538200Y348793
X538200Y329107
X494493Y338150
X474807Y338150
X541100Y296921
X563700Y296921
X563700Y287079
X541100Y287079
X490843Y285450
X471157Y285450
X476243Y266550
X456557Y266550
X406300Y264921
X406300Y255079
X383700Y255079
X383700Y264921
X346900Y299207
X346900Y318893
X190300Y225793
X175600Y225793
X175721Y244250
X165879Y244250
X175600Y206107
X190300Y206107
X409200Y203207
X409200Y222893
X452357Y213750
X472043Y213750
X481557Y163600
X501243Y163600
X533557Y162600
X553243Y162600
X567557Y164850
X567557Y157350
X587243Y157350
X587243Y164850
X586821Y178850
X576979Y178850
X576979Y204850
X586821Y204850
X647700Y203407
X647700Y223093
X691407Y214050
X711093Y214050
X644800Y255279
X622200Y255279
X622200Y265121
X644800Y265121
X695057Y266750
X714743Y266750
X710757Y286250
X730443Y286250
X780700Y287879
X780700Y297721
X803300Y297721
X803300Y287879
X861600Y265121
X884200Y265121
X884200Y255279
X861600Y255279
X887100Y223093
X887100Y203407
X930657Y214000
X950343Y214000
X959457Y163800
X979143Y163800
X1011457Y162800
X1031143Y162800
X1045457Y165050
X1045457Y157550
X1065143Y157550
X1065143Y165050
X1064721Y179050
X1054879Y179050
X1054879Y205050
X1064721Y205050
X954143Y266750
X934457Y266750
X950557Y285350
X970243Y285350
X1020500Y286979
X1043100Y286979
X1043100Y296821
X1020500Y296821
X1017600Y329007
X1017600Y348693
X974743Y337700
X955057Y337700
X945243Y388300
X925557Y388300
X893243Y389300
X873557Y389300
X859243Y387050
X859243Y394550
X839557Y394550
X839557Y387050
X839979Y373050
X849821Y373050
X849821Y347050
X839979Y347050
X777800Y349593
X777800Y329907
X734843Y338700
X715157Y338700
X705443Y389200
X685757Y389200
X653443Y390200
X633757Y390200
X619443Y387950
X619443Y395450
X599757Y395450
X599757Y387950
X600179Y373950
X610021Y373950
X610021Y347950
X600179Y347950
X737757Y388700
X757443Y388700
X977557Y387800
X997243Y387800
X825321Y205050
X815479Y205050
X815479Y179050
X825321Y179050
X825743Y165050
X825743Y157550
X806057Y157550
X806057Y165050
X791743Y162800
X772057Y162800
X739743Y163800
X720057Y163800
X687743Y164300
X668057Y164300
X449243Y164100
X429557Y164100
X907457Y164300
X927143Y164300
T05
X927300Y173310
X917300Y173310
X907300Y173310
X897300Y173310
X879600Y173677
X879600Y161132
X879600Y148586
X879600Y136041
X879600Y123495
X879600Y110950
X839600Y110950
X839600Y123495
X839600Y136041
X839600Y148586
X839600Y161132
X839600Y173677
X839600Y186223
X839600Y198768
X839600Y211314
X839600Y222950
X823500Y218850
X811300Y218550
X790400Y222550
X780400Y222550
X770400Y222550
X760400Y222550
X750400Y222550
X740400Y222550
X730400Y222550
X720400Y222550
X710400Y222550
X700400Y222550
X690400Y222550
X680400Y222550
X670400Y222550
X660400Y222550
X657900Y203310
X667900Y203310
X677900Y203310
X687900Y203310
X709900Y203230
X719900Y203230
X729900Y203230
X739900Y203230
X761900Y203150
X771900Y203150
X781900Y203150
X791900Y203150
X791900Y173150
X781900Y173150
X771900Y173150
X761900Y173150
X739900Y173230
X729900Y173230
X719900Y173230
X709900Y173230
X687900Y173310
X677900Y173310
X667900Y173310
X657900Y173310
X640200Y173677
X640200Y161132
X640200Y148586
X640200Y136041
X640200Y123495
X640200Y110950
X600200Y110950
X600200Y123495
X600200Y136041
X600200Y148586
X600200Y161132
X600200Y173677
X600200Y186223
X600200Y198768
X600200Y211314
X600200Y222950
X585000Y218650
X572800Y218350
X551900Y222350
X541900Y222350
X531900Y222350
X521900Y222350
X511900Y222350
X501900Y222350
X491900Y222350
X481900Y222350
X471900Y222350
X461900Y222350
X451900Y222350
X441900Y222350
X431900Y222350
X421900Y222350
X419400Y203110
X429400Y203110
X439400Y203110
X449400Y203110
X471400Y203030
X481400Y203030
X491400Y203030
X501400Y203030
X523400Y202950
X533400Y202950
X543400Y202950
X553400Y202950
X553400Y172950
X543400Y172950
X533400Y172950
X523400Y172950
X501400Y173030
X491400Y173030
X481400Y173030
X471400Y173030
X449400Y173110
X439400Y173110
X429400Y173110
X419400Y173110
X401700Y173477
X401700Y160932
X401700Y148386
X401700Y135841
X401700Y123295
X401700Y110750
X361700Y110750
X361700Y123295
X361700Y135841
X361700Y148386
X361700Y160932
X361700Y173477
X361700Y186023
X361700Y198568
X361700Y211114
X361700Y222750
X361700Y234204
X361700Y245159
X401700Y245159
X401700Y234204
X401700Y222750
X401700Y211114
X401700Y198568
X401700Y186023
X421900Y252350
X431900Y252350
X441900Y252350
X451900Y252350
X461900Y252350
X471900Y252350
X481900Y252350
X491900Y252350
X501900Y252350
X511900Y252350
X521900Y252350
X531900Y252350
X541900Y252350
X551900Y252350
X557700Y267150
X567700Y267150
X572800Y258350
X585000Y258650
X600200Y245359
X600200Y234404
X640200Y234404
X640200Y245359
X660400Y252550
X670400Y252550
X680400Y252550
X690400Y252550
X700400Y252550
X710400Y252550
X720400Y252550
X730400Y252550
X740400Y252550
X750400Y252550
X760400Y252550
X770400Y252550
X780400Y252550
X790400Y252550
X796200Y267350
X806200Y267350
X811300Y258550
X823500Y258850
X839600Y245359
X839600Y234404
X879600Y234404
X879600Y245359
X899800Y252550
X909800Y252550
X919800Y252550
X929800Y252550
X939800Y252550
X949800Y252550
X959800Y252550
X969800Y252550
X979800Y252550
X989800Y252550
X999800Y252550
X1009800Y252550
X1019800Y252550
X1029800Y252550
X1035600Y267350
X1045600Y267350
X1050700Y258550
X1062900Y258850
X1023600Y267650
X1013600Y267650
X1005400Y266050
X965400Y266050
X939300Y286050
X934900Y299550
X944900Y299550
X954900Y299550
X964900Y299550
X974900Y299550
X984900Y299550
X994900Y299550
X1004900Y299550
X1025100Y306741
X1025100Y317696
X1025100Y329150
X1025100Y340786
X1007400Y348790
X997400Y348790
X987400Y348790
X977400Y348790
X974900Y329550
X964900Y329550
X954900Y329550
X944900Y329550
X934900Y329550
X924900Y329550
X914900Y329550
X904900Y329550
X894900Y329550
X884900Y329550
X874900Y329550
X873400Y348950
X883400Y348950
X893400Y348950
X903400Y348950
X925400Y348870
X935400Y348870
X945400Y348870
X955400Y348870
X984900Y329550
X994900Y329550
X1004900Y329550
X1025100Y353332
X1025100Y365877
X1025100Y378423
X1025100Y390968
X1007400Y378790
X997400Y378790
X987400Y378790
X977400Y378790
X955400Y378870
X945400Y378870
X935400Y378870
X925400Y378870
X903400Y378950
X893400Y378950
X883400Y378950
X873400Y378950
X825300Y379323
X825300Y391868
X825300Y404414
X825300Y416959
X825300Y429505
X825300Y442050
X785300Y442050
X785300Y429505
X785300Y416959
X785300Y404414
X785300Y391868
X785300Y379323
X767600Y379690
X757600Y379690
X747600Y379690
X737600Y379690
X715600Y379770
X705600Y379770
X695600Y379770
X685600Y379770
X664000Y379450
X654000Y379450
X644000Y379450
X634000Y379450
X585700Y378523
X585700Y391068
X585700Y403614
X585700Y416159
X585700Y428705
X585700Y441250
X545700Y441250
X545700Y428705
X545700Y416159
X545700Y403614
X545700Y391068
X545700Y378523
X528000Y378890
X518000Y378890
X508000Y378890
X498000Y378890
X476000Y378970
X466000Y378970
X456000Y378970
X446000Y378970
X424000Y379050
X414000Y379050
X404000Y379050
X394000Y379050
X394000Y349050
X404000Y349050
X414000Y349050
X424000Y349050
X446000Y348970
X456000Y348970
X466000Y348970
X476000Y348970
X475500Y329650
X465500Y329650
X455500Y329650
X445500Y329650
X435500Y329650
X425500Y329650
X415500Y329650
X405500Y329650
X395500Y329650
X374600Y333650
X362400Y333350
X331400Y310750
X334900Y296550
X324900Y296550
X291400Y310750
X362400Y293350
X374600Y293650
X379700Y284850
X389700Y284850
X401700Y284550
X411700Y284550
X419900Y286150
X415500Y299650
X405500Y299650
X395500Y299650
X425500Y299650
X435500Y299650
X445500Y299650
X455500Y299650
X465500Y299650
X475500Y299650
X485500Y299650
X495500Y299650
X505500Y299650
X515500Y299650
X525500Y299650
X545700Y306841
X545700Y317796
X545700Y329250
X545700Y340886
X528000Y348890
X518000Y348890
X508000Y348890
X498000Y348890
X495500Y329650
X505500Y329650
X515500Y329650
X525500Y329650
X545700Y353432
X545700Y365977
X585700Y365977
X585700Y353432
X585700Y340886
X585700Y329250
X602000Y334150
X614200Y334450
X635100Y330450
X645100Y330450
X655100Y330450
X665100Y330450
X675100Y330450
X685100Y330450
X695100Y330450
X705100Y330450
X715100Y330450
X725100Y330450
X735100Y330450
X745100Y330450
X755100Y330450
X765100Y330450
X767600Y349690
X757600Y349690
X747600Y349690
X737600Y349690
X715600Y349770
X705600Y349770
X695600Y349770
X685600Y349770
X664000Y349450
X654000Y349450
X644000Y349450
X634000Y349450
X585700Y317796
X585700Y306841
X602000Y294150
X614200Y294450
X619300Y285650
X629300Y285650
X641300Y285350
X651300Y285350
X659500Y286950
X655100Y300450
X645100Y300450
X635100Y300450
X665100Y300450
X675100Y300450
X685100Y300450
X695100Y300450
X705100Y300450
X715100Y300450
X725100Y300450
X735100Y300450
X745100Y300450
X755100Y300450
X765100Y300450
X785300Y307641
X785300Y318596
X785300Y330050
X785300Y341686
X785300Y354232
X785300Y366777
X825300Y366777
X825300Y354232
X825300Y341686
X825300Y330050
X825300Y318596
X825300Y307641
X841800Y293250
X854000Y293550
X859100Y284750
X869100Y284750
X881100Y284450
X891100Y284450
X899300Y286050
X894900Y299550
X884900Y299550
X874900Y299550
X904900Y299550
X914900Y299550
X924900Y299550
X854000Y333550
X841800Y333250
X784200Y267650
X774200Y267650
X766000Y266050
X726000Y266050
X699500Y286950
X640200Y222950
X640200Y211314
X640200Y198768
X640200Y186223
X545700Y267450
X535700Y267450
X527500Y265850
X487500Y265850
X459900Y286150
X485500Y329650
X190100Y198650
X190100Y158650
X879600Y186223
X879600Y198768
X897300Y203310
X907300Y203310
X917300Y203310
X927300Y203310
X929800Y222550
X919800Y222550
X909800Y222550
X899800Y222550
X879600Y222950
X879600Y211314
X939800Y222550
X949800Y222550
X959800Y222550
X969800Y222550
X979800Y222550
X989800Y222550
X999800Y222550
X1009800Y222550
X1019800Y222550
X1029800Y222550
X1031300Y203150
X1021300Y203150
X1011300Y203150
X1001300Y203150
X979300Y203230
X969300Y203230
X959300Y203230
X949300Y203230
X949300Y173230
X959300Y173230
X969300Y173230
X979300Y173230
X1001300Y173150
X1011300Y173150
X1021300Y173150
X1031300Y173150
X1050700Y218550
X1062900Y218850
X1065100Y306741
X1065100Y317696
X1065100Y329150
X1065100Y340786
X1065100Y353332
X1065100Y365877
X1065100Y378423
X1065100Y390968
X1065100Y403514
X1065100Y414659
X1064800Y425505
X1065000Y436050
X1025000Y436050
X1024800Y425505
X1025100Y414659
X1025100Y403514
T06
X338400Y343050
X328400Y343050
X318400Y343050
X308400Y343050
X298400Y343050
X288400Y343050
X278400Y343050
X268400Y343050
X252400Y343050
X242400Y343050
X232400Y343050
X222400Y343050
X212400Y343050
X202400Y343050
X192400Y343050
X182400Y343050
X172400Y343050
X162400Y343050
X205900Y222550
X215900Y222550
X225900Y222550
X235900Y222550
X245900Y222550
X255900Y222550
X265900Y222550
X275900Y222550
X285900Y222550
X295900Y222550
X305900Y222550
X315900Y222550
X325900Y222550
X335900Y222550
X335900Y192550
X325900Y192550
X315900Y192550
X305900Y192550
X295900Y192550
X285900Y192550
X275900Y192550
X265900Y192550
X255900Y192550
X245900Y192550
X235900Y192550
X225900Y192550
X215900Y192550
X205900Y192550
X208400Y153050
X198400Y153050
X218400Y153050
X228400Y153050
X238400Y153050
X248400Y153050
X258400Y153050
X268400Y153050
X288400Y153050
X298400Y153050
X308400Y153050
X318400Y153050
X328400Y153050
X338400Y153050
T07
X460400Y172970
X460400Y202970
X512400Y202850
X564400Y203090
X564400Y173090
X512400Y172850
X698900Y173170
X698900Y203170
X750900Y203050
X802900Y203290
X802900Y173290
X750900Y173050
X938300Y173170
X990300Y173050
X990300Y203050
X938300Y203170
X1042300Y203290
X1042300Y173290
X966400Y348930
X966400Y378930
X914400Y379050
X862400Y378810
X862400Y348810
X914400Y349050
X726600Y349830
X726600Y379830
X674600Y379950
X622600Y379710
X622600Y349710
X674600Y349950
X487000Y349030
X487000Y379030
X435000Y379150
X383000Y378910
X383000Y348910
X435000Y349150
X270100Y364550
X260100Y364550
X250100Y364550
X240100Y364550
X230100Y364550
X220100Y364550
X220100Y444550
X230100Y444550
X240100Y444550
X250100Y444550
X260100Y444550
X270100Y444550
X175700Y197450
X166000Y197550
X166000Y167550
X175700Y167450
T08
X338900Y243050
X338900Y253050
X338900Y263050
X348900Y263050
X348900Y253050
X348900Y243050
T09
X385000Y335650
X336300Y378579
X326300Y378579
X316300Y378579
X398000Y398650
X408000Y398650
X418000Y398650
X451000Y398650
X461000Y398650
X471000Y398650
X502000Y398650
X512000Y398650
X522000Y398650
X522000Y441650
X512000Y441650
X502000Y441650
X471000Y441650
X461000Y441650
X451000Y441650
X418000Y441650
X408000Y441650
X398000Y441650
X624600Y336450
X637600Y399450
X647600Y399450
X657600Y399450
X690600Y399450
X700600Y399450
X710600Y399450
X741600Y399450
X751600Y399450
X761600Y399450
X761600Y442450
X751600Y442450
X741600Y442450
X710600Y442450
X700600Y442450
X690600Y442450
X657600Y442450
X647600Y442450
X637600Y442450
X864400Y335550
X877400Y398550
X887400Y398550
X897400Y398550
X930400Y398550
X940400Y398550
X950400Y398550
X981400Y398550
X991400Y398550
X1001400Y398550
X1001400Y441550
X991400Y441550
X981400Y441550
X950400Y441550
X940400Y441550
X930400Y441550
X897400Y441550
X887400Y441550
X877400Y441550
X800900Y216550
X787900Y153550
X777900Y153550
X767900Y153550
X734900Y153550
X724900Y153550
X714900Y153550
X683900Y153550
X673900Y153550
X663900Y153550
X663900Y110550
X673900Y110550
X683900Y110550
X714900Y110550
X724900Y110550
X734900Y110550
X767900Y110550
X777900Y110550
X787900Y110550
X903300Y110550
X913300Y110550
X923300Y110550
X954300Y110550
X964300Y110550
X974300Y110550
X1007300Y110550
X1017300Y110550
X1027300Y110550
X1027300Y153550
X1017300Y153550
X1007300Y153550
X974300Y153550
X964300Y153550
X954300Y153550
X923300Y153550
X913300Y153550
X903300Y153550
X1040300Y216550
X562400Y216350
X549400Y153350
X539400Y153350
X529400Y153350
X496400Y153350
X486400Y153350
X476400Y153350
X445400Y153350
X435400Y153350
X425400Y153350
X425400Y110350
X435400Y110350
X445400Y110350
X476400Y110350
X486400Y110350
X496400Y110350
X529400Y110350
X539400Y110350
X549400Y110350
T10
X173300Y270450
X173300Y280450
X173300Y290450
T11
X373500Y419650
X412000Y419650
X449500Y419650
X487500Y420150
X525500Y420150
X613100Y420450
X651600Y420450
X689100Y420450
X727100Y420950
X765100Y420950
X852900Y419550
X891400Y419550
X928900Y419550
X966900Y420050
X1004900Y420050
X1013300Y132550
X975800Y132550
X937800Y132050
X899800Y132050
X812400Y132550
X773900Y132550
X736400Y132550
X698400Y132050
X660400Y132050
X573900Y132350
X535400Y132350
X497900Y132350
X459900Y131850
X421900Y131850
X336600Y129850
X298600Y129850
X260600Y130350
X223100Y130350
X184600Y130350
X1051800Y132550
T12
X102550Y108250
X143400Y153050
X348400Y173050
X348400Y283050
X162000Y390850
X162000Y418150
X102550Y451100
X148400Y343050
X1068750Y450600
X1070450Y104150
T13
X326300Y437579
M30
