G75*
%MOIN*%
%OFA0B0*%
%FSLAX25Y25*%
%IPPOS*%
%LPD*%
%AMOC8*
5,1,8,0,0,1.08239X$1,22.5*
%
%ADD10C,0.01200*%
D10*
X0072400Y0160250D02*
X0072402Y0160351D01*
X0072408Y0160453D01*
X0072418Y0160554D01*
X0072432Y0160654D01*
X0072449Y0160754D01*
X0072471Y0160853D01*
X0072496Y0160951D01*
X0072526Y0161049D01*
X0072559Y0161145D01*
X0072595Y0161239D01*
X0072636Y0161332D01*
X0072680Y0161424D01*
X0072727Y0161513D01*
X0072779Y0161601D01*
X0072833Y0161687D01*
X0072891Y0161770D01*
X0072952Y0161851D01*
X0073016Y0161930D01*
X0073083Y0162006D01*
X0073153Y0162079D01*
X0073225Y0162150D01*
X0073301Y0162218D01*
X0073379Y0162283D01*
X0073459Y0162344D01*
X0073542Y0162403D01*
X0073627Y0162458D01*
X0073715Y0162510D01*
X0073804Y0162559D01*
X0073895Y0162603D01*
X0073987Y0162645D01*
X0074082Y0162682D01*
X0074177Y0162716D01*
X0074274Y0162747D01*
X0074372Y0162773D01*
X0074471Y0162796D01*
X0074571Y0162814D01*
X0074671Y0162829D01*
X0074772Y0162840D01*
X0074873Y0162847D01*
X0074975Y0162850D01*
X0075076Y0162849D01*
X0075177Y0162844D01*
X0075279Y0162835D01*
X0075379Y0162822D01*
X0075479Y0162805D01*
X0075579Y0162785D01*
X0075677Y0162760D01*
X0075774Y0162732D01*
X0075871Y0162700D01*
X0075966Y0162664D01*
X0076059Y0162625D01*
X0076151Y0162581D01*
X0076241Y0162535D01*
X0076329Y0162485D01*
X0076415Y0162431D01*
X0076499Y0162374D01*
X0076581Y0162314D01*
X0076660Y0162251D01*
X0076737Y0162184D01*
X0076811Y0162115D01*
X0076883Y0162043D01*
X0076951Y0161968D01*
X0077017Y0161891D01*
X0077079Y0161811D01*
X0077139Y0161729D01*
X0077195Y0161644D01*
X0077247Y0161557D01*
X0077297Y0161469D01*
X0077343Y0161378D01*
X0077385Y0161286D01*
X0077423Y0161192D01*
X0077458Y0161097D01*
X0077489Y0161000D01*
X0077517Y0160902D01*
X0077540Y0160804D01*
X0077560Y0160704D01*
X0077576Y0160604D01*
X0077588Y0160503D01*
X0077596Y0160402D01*
X0077600Y0160301D01*
X0077600Y0160199D01*
X0077596Y0160098D01*
X0077588Y0159997D01*
X0077576Y0159896D01*
X0077560Y0159796D01*
X0077540Y0159696D01*
X0077517Y0159598D01*
X0077489Y0159500D01*
X0077458Y0159403D01*
X0077423Y0159308D01*
X0077385Y0159214D01*
X0077343Y0159122D01*
X0077297Y0159031D01*
X0077247Y0158943D01*
X0077195Y0158856D01*
X0077139Y0158771D01*
X0077079Y0158689D01*
X0077017Y0158609D01*
X0076951Y0158532D01*
X0076883Y0158457D01*
X0076811Y0158385D01*
X0076737Y0158316D01*
X0076660Y0158249D01*
X0076581Y0158186D01*
X0076499Y0158126D01*
X0076415Y0158069D01*
X0076329Y0158015D01*
X0076241Y0157965D01*
X0076151Y0157919D01*
X0076059Y0157875D01*
X0075966Y0157836D01*
X0075871Y0157800D01*
X0075774Y0157768D01*
X0075677Y0157740D01*
X0075579Y0157715D01*
X0075479Y0157695D01*
X0075379Y0157678D01*
X0075279Y0157665D01*
X0075177Y0157656D01*
X0075076Y0157651D01*
X0074975Y0157650D01*
X0074873Y0157653D01*
X0074772Y0157660D01*
X0074671Y0157671D01*
X0074571Y0157686D01*
X0074471Y0157704D01*
X0074372Y0157727D01*
X0074274Y0157753D01*
X0074177Y0157784D01*
X0074082Y0157818D01*
X0073987Y0157855D01*
X0073895Y0157897D01*
X0073804Y0157941D01*
X0073715Y0157990D01*
X0073627Y0158042D01*
X0073542Y0158097D01*
X0073459Y0158156D01*
X0073379Y0158217D01*
X0073301Y0158282D01*
X0073225Y0158350D01*
X0073153Y0158421D01*
X0073083Y0158494D01*
X0073016Y0158570D01*
X0072952Y0158649D01*
X0072891Y0158730D01*
X0072833Y0158813D01*
X0072779Y0158899D01*
X0072727Y0158987D01*
X0072680Y0159076D01*
X0072636Y0159168D01*
X0072595Y0159261D01*
X0072559Y0159355D01*
X0072526Y0159451D01*
X0072496Y0159549D01*
X0072471Y0159647D01*
X0072449Y0159746D01*
X0072432Y0159846D01*
X0072418Y0159946D01*
X0072408Y0160047D01*
X0072402Y0160149D01*
X0072400Y0160250D01*
X0072402Y0160351D01*
X0072408Y0160453D01*
X0072418Y0160554D01*
X0072432Y0160654D01*
X0072449Y0160754D01*
X0072471Y0160853D01*
X0072496Y0160951D01*
X0072526Y0161049D01*
X0072559Y0161145D01*
X0072595Y0161239D01*
X0072636Y0161332D01*
X0072680Y0161424D01*
X0072727Y0161513D01*
X0072779Y0161601D01*
X0072833Y0161687D01*
X0072891Y0161770D01*
X0072952Y0161851D01*
X0073016Y0161930D01*
X0073083Y0162006D01*
X0073153Y0162079D01*
X0073225Y0162150D01*
X0073301Y0162218D01*
X0073379Y0162283D01*
X0073459Y0162344D01*
X0073542Y0162403D01*
X0073627Y0162458D01*
X0073715Y0162510D01*
X0073804Y0162559D01*
X0073895Y0162603D01*
X0073987Y0162645D01*
X0074082Y0162682D01*
X0074177Y0162716D01*
X0074274Y0162747D01*
X0074372Y0162773D01*
X0074471Y0162796D01*
X0074571Y0162814D01*
X0074671Y0162829D01*
X0074772Y0162840D01*
X0074873Y0162847D01*
X0074975Y0162850D01*
X0075076Y0162849D01*
X0075177Y0162844D01*
X0075279Y0162835D01*
X0075379Y0162822D01*
X0075479Y0162805D01*
X0075579Y0162785D01*
X0075677Y0162760D01*
X0075774Y0162732D01*
X0075871Y0162700D01*
X0075966Y0162664D01*
X0076059Y0162625D01*
X0076151Y0162581D01*
X0076241Y0162535D01*
X0076329Y0162485D01*
X0076415Y0162431D01*
X0076499Y0162374D01*
X0076581Y0162314D01*
X0076660Y0162251D01*
X0076737Y0162184D01*
X0076811Y0162115D01*
X0076883Y0162043D01*
X0076951Y0161968D01*
X0077017Y0161891D01*
X0077079Y0161811D01*
X0077139Y0161729D01*
X0077195Y0161644D01*
X0077247Y0161557D01*
X0077297Y0161469D01*
X0077343Y0161378D01*
X0077385Y0161286D01*
X0077423Y0161192D01*
X0077458Y0161097D01*
X0077489Y0161000D01*
X0077517Y0160902D01*
X0077540Y0160804D01*
X0077560Y0160704D01*
X0077576Y0160604D01*
X0077588Y0160503D01*
X0077596Y0160402D01*
X0077600Y0160301D01*
X0077600Y0160199D01*
X0077596Y0160098D01*
X0077588Y0159997D01*
X0077576Y0159896D01*
X0077560Y0159796D01*
X0077540Y0159696D01*
X0077517Y0159598D01*
X0077489Y0159500D01*
X0077458Y0159403D01*
X0077423Y0159308D01*
X0077385Y0159214D01*
X0077343Y0159122D01*
X0077297Y0159031D01*
X0077247Y0158943D01*
X0077195Y0158856D01*
X0077139Y0158771D01*
X0077079Y0158689D01*
X0077017Y0158609D01*
X0076951Y0158532D01*
X0076883Y0158457D01*
X0076811Y0158385D01*
X0076737Y0158316D01*
X0076660Y0158249D01*
X0076581Y0158186D01*
X0076499Y0158126D01*
X0076415Y0158069D01*
X0076329Y0158015D01*
X0076241Y0157965D01*
X0076151Y0157919D01*
X0076059Y0157875D01*
X0075966Y0157836D01*
X0075871Y0157800D01*
X0075774Y0157768D01*
X0075677Y0157740D01*
X0075579Y0157715D01*
X0075479Y0157695D01*
X0075379Y0157678D01*
X0075279Y0157665D01*
X0075177Y0157656D01*
X0075076Y0157651D01*
X0074975Y0157650D01*
X0074873Y0157653D01*
X0074772Y0157660D01*
X0074671Y0157671D01*
X0074571Y0157686D01*
X0074471Y0157704D01*
X0074372Y0157727D01*
X0074274Y0157753D01*
X0074177Y0157784D01*
X0074082Y0157818D01*
X0073987Y0157855D01*
X0073895Y0157897D01*
X0073804Y0157941D01*
X0073715Y0157990D01*
X0073627Y0158042D01*
X0073542Y0158097D01*
X0073459Y0158156D01*
X0073379Y0158217D01*
X0073301Y0158282D01*
X0073225Y0158350D01*
X0073153Y0158421D01*
X0073083Y0158494D01*
X0073016Y0158570D01*
X0072952Y0158649D01*
X0072891Y0158730D01*
X0072833Y0158813D01*
X0072779Y0158899D01*
X0072727Y0158987D01*
X0072680Y0159076D01*
X0072636Y0159168D01*
X0072595Y0159261D01*
X0072559Y0159355D01*
X0072526Y0159451D01*
X0072496Y0159549D01*
X0072471Y0159647D01*
X0072449Y0159746D01*
X0072432Y0159846D01*
X0072418Y0159946D01*
X0072408Y0160047D01*
X0072402Y0160149D01*
X0072400Y0160250D01*
X0072400Y0170250D02*
X0072402Y0170351D01*
X0072408Y0170453D01*
X0072418Y0170554D01*
X0072432Y0170654D01*
X0072449Y0170754D01*
X0072471Y0170853D01*
X0072496Y0170951D01*
X0072526Y0171049D01*
X0072559Y0171145D01*
X0072595Y0171239D01*
X0072636Y0171332D01*
X0072680Y0171424D01*
X0072727Y0171513D01*
X0072779Y0171601D01*
X0072833Y0171687D01*
X0072891Y0171770D01*
X0072952Y0171851D01*
X0073016Y0171930D01*
X0073083Y0172006D01*
X0073153Y0172079D01*
X0073225Y0172150D01*
X0073301Y0172218D01*
X0073379Y0172283D01*
X0073459Y0172344D01*
X0073542Y0172403D01*
X0073627Y0172458D01*
X0073715Y0172510D01*
X0073804Y0172559D01*
X0073895Y0172603D01*
X0073987Y0172645D01*
X0074082Y0172682D01*
X0074177Y0172716D01*
X0074274Y0172747D01*
X0074372Y0172773D01*
X0074471Y0172796D01*
X0074571Y0172814D01*
X0074671Y0172829D01*
X0074772Y0172840D01*
X0074873Y0172847D01*
X0074975Y0172850D01*
X0075076Y0172849D01*
X0075177Y0172844D01*
X0075279Y0172835D01*
X0075379Y0172822D01*
X0075479Y0172805D01*
X0075579Y0172785D01*
X0075677Y0172760D01*
X0075774Y0172732D01*
X0075871Y0172700D01*
X0075966Y0172664D01*
X0076059Y0172625D01*
X0076151Y0172581D01*
X0076241Y0172535D01*
X0076329Y0172485D01*
X0076415Y0172431D01*
X0076499Y0172374D01*
X0076581Y0172314D01*
X0076660Y0172251D01*
X0076737Y0172184D01*
X0076811Y0172115D01*
X0076883Y0172043D01*
X0076951Y0171968D01*
X0077017Y0171891D01*
X0077079Y0171811D01*
X0077139Y0171729D01*
X0077195Y0171644D01*
X0077247Y0171557D01*
X0077297Y0171469D01*
X0077343Y0171378D01*
X0077385Y0171286D01*
X0077423Y0171192D01*
X0077458Y0171097D01*
X0077489Y0171000D01*
X0077517Y0170902D01*
X0077540Y0170804D01*
X0077560Y0170704D01*
X0077576Y0170604D01*
X0077588Y0170503D01*
X0077596Y0170402D01*
X0077600Y0170301D01*
X0077600Y0170199D01*
X0077596Y0170098D01*
X0077588Y0169997D01*
X0077576Y0169896D01*
X0077560Y0169796D01*
X0077540Y0169696D01*
X0077517Y0169598D01*
X0077489Y0169500D01*
X0077458Y0169403D01*
X0077423Y0169308D01*
X0077385Y0169214D01*
X0077343Y0169122D01*
X0077297Y0169031D01*
X0077247Y0168943D01*
X0077195Y0168856D01*
X0077139Y0168771D01*
X0077079Y0168689D01*
X0077017Y0168609D01*
X0076951Y0168532D01*
X0076883Y0168457D01*
X0076811Y0168385D01*
X0076737Y0168316D01*
X0076660Y0168249D01*
X0076581Y0168186D01*
X0076499Y0168126D01*
X0076415Y0168069D01*
X0076329Y0168015D01*
X0076241Y0167965D01*
X0076151Y0167919D01*
X0076059Y0167875D01*
X0075966Y0167836D01*
X0075871Y0167800D01*
X0075774Y0167768D01*
X0075677Y0167740D01*
X0075579Y0167715D01*
X0075479Y0167695D01*
X0075379Y0167678D01*
X0075279Y0167665D01*
X0075177Y0167656D01*
X0075076Y0167651D01*
X0074975Y0167650D01*
X0074873Y0167653D01*
X0074772Y0167660D01*
X0074671Y0167671D01*
X0074571Y0167686D01*
X0074471Y0167704D01*
X0074372Y0167727D01*
X0074274Y0167753D01*
X0074177Y0167784D01*
X0074082Y0167818D01*
X0073987Y0167855D01*
X0073895Y0167897D01*
X0073804Y0167941D01*
X0073715Y0167990D01*
X0073627Y0168042D01*
X0073542Y0168097D01*
X0073459Y0168156D01*
X0073379Y0168217D01*
X0073301Y0168282D01*
X0073225Y0168350D01*
X0073153Y0168421D01*
X0073083Y0168494D01*
X0073016Y0168570D01*
X0072952Y0168649D01*
X0072891Y0168730D01*
X0072833Y0168813D01*
X0072779Y0168899D01*
X0072727Y0168987D01*
X0072680Y0169076D01*
X0072636Y0169168D01*
X0072595Y0169261D01*
X0072559Y0169355D01*
X0072526Y0169451D01*
X0072496Y0169549D01*
X0072471Y0169647D01*
X0072449Y0169746D01*
X0072432Y0169846D01*
X0072418Y0169946D01*
X0072408Y0170047D01*
X0072402Y0170149D01*
X0072400Y0170250D01*
X0072402Y0170351D01*
X0072408Y0170453D01*
X0072418Y0170554D01*
X0072432Y0170654D01*
X0072449Y0170754D01*
X0072471Y0170853D01*
X0072496Y0170951D01*
X0072526Y0171049D01*
X0072559Y0171145D01*
X0072595Y0171239D01*
X0072636Y0171332D01*
X0072680Y0171424D01*
X0072727Y0171513D01*
X0072779Y0171601D01*
X0072833Y0171687D01*
X0072891Y0171770D01*
X0072952Y0171851D01*
X0073016Y0171930D01*
X0073083Y0172006D01*
X0073153Y0172079D01*
X0073225Y0172150D01*
X0073301Y0172218D01*
X0073379Y0172283D01*
X0073459Y0172344D01*
X0073542Y0172403D01*
X0073627Y0172458D01*
X0073715Y0172510D01*
X0073804Y0172559D01*
X0073895Y0172603D01*
X0073987Y0172645D01*
X0074082Y0172682D01*
X0074177Y0172716D01*
X0074274Y0172747D01*
X0074372Y0172773D01*
X0074471Y0172796D01*
X0074571Y0172814D01*
X0074671Y0172829D01*
X0074772Y0172840D01*
X0074873Y0172847D01*
X0074975Y0172850D01*
X0075076Y0172849D01*
X0075177Y0172844D01*
X0075279Y0172835D01*
X0075379Y0172822D01*
X0075479Y0172805D01*
X0075579Y0172785D01*
X0075677Y0172760D01*
X0075774Y0172732D01*
X0075871Y0172700D01*
X0075966Y0172664D01*
X0076059Y0172625D01*
X0076151Y0172581D01*
X0076241Y0172535D01*
X0076329Y0172485D01*
X0076415Y0172431D01*
X0076499Y0172374D01*
X0076581Y0172314D01*
X0076660Y0172251D01*
X0076737Y0172184D01*
X0076811Y0172115D01*
X0076883Y0172043D01*
X0076951Y0171968D01*
X0077017Y0171891D01*
X0077079Y0171811D01*
X0077139Y0171729D01*
X0077195Y0171644D01*
X0077247Y0171557D01*
X0077297Y0171469D01*
X0077343Y0171378D01*
X0077385Y0171286D01*
X0077423Y0171192D01*
X0077458Y0171097D01*
X0077489Y0171000D01*
X0077517Y0170902D01*
X0077540Y0170804D01*
X0077560Y0170704D01*
X0077576Y0170604D01*
X0077588Y0170503D01*
X0077596Y0170402D01*
X0077600Y0170301D01*
X0077600Y0170199D01*
X0077596Y0170098D01*
X0077588Y0169997D01*
X0077576Y0169896D01*
X0077560Y0169796D01*
X0077540Y0169696D01*
X0077517Y0169598D01*
X0077489Y0169500D01*
X0077458Y0169403D01*
X0077423Y0169308D01*
X0077385Y0169214D01*
X0077343Y0169122D01*
X0077297Y0169031D01*
X0077247Y0168943D01*
X0077195Y0168856D01*
X0077139Y0168771D01*
X0077079Y0168689D01*
X0077017Y0168609D01*
X0076951Y0168532D01*
X0076883Y0168457D01*
X0076811Y0168385D01*
X0076737Y0168316D01*
X0076660Y0168249D01*
X0076581Y0168186D01*
X0076499Y0168126D01*
X0076415Y0168069D01*
X0076329Y0168015D01*
X0076241Y0167965D01*
X0076151Y0167919D01*
X0076059Y0167875D01*
X0075966Y0167836D01*
X0075871Y0167800D01*
X0075774Y0167768D01*
X0075677Y0167740D01*
X0075579Y0167715D01*
X0075479Y0167695D01*
X0075379Y0167678D01*
X0075279Y0167665D01*
X0075177Y0167656D01*
X0075076Y0167651D01*
X0074975Y0167650D01*
X0074873Y0167653D01*
X0074772Y0167660D01*
X0074671Y0167671D01*
X0074571Y0167686D01*
X0074471Y0167704D01*
X0074372Y0167727D01*
X0074274Y0167753D01*
X0074177Y0167784D01*
X0074082Y0167818D01*
X0073987Y0167855D01*
X0073895Y0167897D01*
X0073804Y0167941D01*
X0073715Y0167990D01*
X0073627Y0168042D01*
X0073542Y0168097D01*
X0073459Y0168156D01*
X0073379Y0168217D01*
X0073301Y0168282D01*
X0073225Y0168350D01*
X0073153Y0168421D01*
X0073083Y0168494D01*
X0073016Y0168570D01*
X0072952Y0168649D01*
X0072891Y0168730D01*
X0072833Y0168813D01*
X0072779Y0168899D01*
X0072727Y0168987D01*
X0072680Y0169076D01*
X0072636Y0169168D01*
X0072595Y0169261D01*
X0072559Y0169355D01*
X0072526Y0169451D01*
X0072496Y0169549D01*
X0072471Y0169647D01*
X0072449Y0169746D01*
X0072432Y0169846D01*
X0072418Y0169946D01*
X0072408Y0170047D01*
X0072402Y0170149D01*
X0072400Y0170250D01*
X0082393Y0170250D02*
X0082395Y0170352D01*
X0082401Y0170453D01*
X0082411Y0170555D01*
X0082425Y0170655D01*
X0082442Y0170755D01*
X0082464Y0170855D01*
X0082490Y0170953D01*
X0082519Y0171051D01*
X0082552Y0171147D01*
X0082589Y0171242D01*
X0082630Y0171335D01*
X0082674Y0171427D01*
X0082721Y0171517D01*
X0082773Y0171605D01*
X0082827Y0171690D01*
X0082885Y0171774D01*
X0082946Y0171855D01*
X0083010Y0171934D01*
X0083077Y0172011D01*
X0083148Y0172084D01*
X0083221Y0172155D01*
X0083296Y0172223D01*
X0083375Y0172288D01*
X0083455Y0172350D01*
X0083538Y0172409D01*
X0083624Y0172464D01*
X0083711Y0172516D01*
X0083801Y0172565D01*
X0083892Y0172610D01*
X0083985Y0172651D01*
X0084079Y0172689D01*
X0084175Y0172723D01*
X0084272Y0172753D01*
X0084370Y0172780D01*
X0084470Y0172802D01*
X0084570Y0172821D01*
X0084670Y0172836D01*
X0084771Y0172847D01*
X0084873Y0172854D01*
X0084975Y0172857D01*
X0085076Y0172856D01*
X0085178Y0172851D01*
X0085279Y0172842D01*
X0085380Y0172829D01*
X0085481Y0172812D01*
X0085580Y0172792D01*
X0085679Y0172767D01*
X0085777Y0172739D01*
X0085873Y0172706D01*
X0085968Y0172671D01*
X0086062Y0172631D01*
X0086154Y0172588D01*
X0086244Y0172541D01*
X0086333Y0172491D01*
X0086419Y0172437D01*
X0086503Y0172380D01*
X0086585Y0172320D01*
X0086665Y0172256D01*
X0086742Y0172190D01*
X0086816Y0172120D01*
X0086888Y0172048D01*
X0086957Y0171973D01*
X0087022Y0171895D01*
X0087085Y0171815D01*
X0087144Y0171733D01*
X0087201Y0171648D01*
X0087253Y0171561D01*
X0087303Y0171472D01*
X0087349Y0171381D01*
X0087391Y0171289D01*
X0087430Y0171195D01*
X0087465Y0171099D01*
X0087496Y0171002D01*
X0087524Y0170904D01*
X0087547Y0170805D01*
X0087567Y0170705D01*
X0087583Y0170605D01*
X0087595Y0170504D01*
X0087603Y0170403D01*
X0087607Y0170301D01*
X0087607Y0170199D01*
X0087603Y0170097D01*
X0087595Y0169996D01*
X0087583Y0169895D01*
X0087567Y0169795D01*
X0087547Y0169695D01*
X0087524Y0169596D01*
X0087496Y0169498D01*
X0087465Y0169401D01*
X0087430Y0169305D01*
X0087391Y0169211D01*
X0087349Y0169119D01*
X0087303Y0169028D01*
X0087253Y0168939D01*
X0087201Y0168852D01*
X0087144Y0168767D01*
X0087085Y0168685D01*
X0087022Y0168605D01*
X0086957Y0168527D01*
X0086888Y0168452D01*
X0086816Y0168380D01*
X0086742Y0168310D01*
X0086665Y0168244D01*
X0086585Y0168180D01*
X0086503Y0168120D01*
X0086419Y0168063D01*
X0086333Y0168009D01*
X0086244Y0167959D01*
X0086154Y0167912D01*
X0086062Y0167869D01*
X0085968Y0167829D01*
X0085873Y0167794D01*
X0085777Y0167761D01*
X0085679Y0167733D01*
X0085580Y0167708D01*
X0085481Y0167688D01*
X0085380Y0167671D01*
X0085279Y0167658D01*
X0085178Y0167649D01*
X0085076Y0167644D01*
X0084975Y0167643D01*
X0084873Y0167646D01*
X0084771Y0167653D01*
X0084670Y0167664D01*
X0084570Y0167679D01*
X0084470Y0167698D01*
X0084370Y0167720D01*
X0084272Y0167747D01*
X0084175Y0167777D01*
X0084079Y0167811D01*
X0083985Y0167849D01*
X0083892Y0167890D01*
X0083801Y0167935D01*
X0083711Y0167984D01*
X0083624Y0168036D01*
X0083538Y0168091D01*
X0083455Y0168150D01*
X0083375Y0168212D01*
X0083296Y0168277D01*
X0083221Y0168345D01*
X0083148Y0168416D01*
X0083077Y0168489D01*
X0083010Y0168566D01*
X0082946Y0168645D01*
X0082885Y0168726D01*
X0082827Y0168810D01*
X0082773Y0168895D01*
X0082721Y0168983D01*
X0082674Y0169073D01*
X0082630Y0169165D01*
X0082589Y0169258D01*
X0082552Y0169353D01*
X0082519Y0169449D01*
X0082490Y0169547D01*
X0082464Y0169645D01*
X0082442Y0169745D01*
X0082425Y0169845D01*
X0082411Y0169945D01*
X0082401Y0170047D01*
X0082395Y0170148D01*
X0082393Y0170250D01*
X0082395Y0170352D01*
X0082401Y0170453D01*
X0082411Y0170555D01*
X0082425Y0170655D01*
X0082442Y0170755D01*
X0082464Y0170855D01*
X0082490Y0170953D01*
X0082519Y0171051D01*
X0082552Y0171147D01*
X0082589Y0171242D01*
X0082630Y0171335D01*
X0082674Y0171427D01*
X0082721Y0171517D01*
X0082773Y0171605D01*
X0082827Y0171690D01*
X0082885Y0171774D01*
X0082946Y0171855D01*
X0083010Y0171934D01*
X0083077Y0172011D01*
X0083148Y0172084D01*
X0083221Y0172155D01*
X0083296Y0172223D01*
X0083375Y0172288D01*
X0083455Y0172350D01*
X0083538Y0172409D01*
X0083624Y0172464D01*
X0083711Y0172516D01*
X0083801Y0172565D01*
X0083892Y0172610D01*
X0083985Y0172651D01*
X0084079Y0172689D01*
X0084175Y0172723D01*
X0084272Y0172753D01*
X0084370Y0172780D01*
X0084470Y0172802D01*
X0084570Y0172821D01*
X0084670Y0172836D01*
X0084771Y0172847D01*
X0084873Y0172854D01*
X0084975Y0172857D01*
X0085076Y0172856D01*
X0085178Y0172851D01*
X0085279Y0172842D01*
X0085380Y0172829D01*
X0085481Y0172812D01*
X0085580Y0172792D01*
X0085679Y0172767D01*
X0085777Y0172739D01*
X0085873Y0172706D01*
X0085968Y0172671D01*
X0086062Y0172631D01*
X0086154Y0172588D01*
X0086244Y0172541D01*
X0086333Y0172491D01*
X0086419Y0172437D01*
X0086503Y0172380D01*
X0086585Y0172320D01*
X0086665Y0172256D01*
X0086742Y0172190D01*
X0086816Y0172120D01*
X0086888Y0172048D01*
X0086957Y0171973D01*
X0087022Y0171895D01*
X0087085Y0171815D01*
X0087144Y0171733D01*
X0087201Y0171648D01*
X0087253Y0171561D01*
X0087303Y0171472D01*
X0087349Y0171381D01*
X0087391Y0171289D01*
X0087430Y0171195D01*
X0087465Y0171099D01*
X0087496Y0171002D01*
X0087524Y0170904D01*
X0087547Y0170805D01*
X0087567Y0170705D01*
X0087583Y0170605D01*
X0087595Y0170504D01*
X0087603Y0170403D01*
X0087607Y0170301D01*
X0087607Y0170199D01*
X0087603Y0170097D01*
X0087595Y0169996D01*
X0087583Y0169895D01*
X0087567Y0169795D01*
X0087547Y0169695D01*
X0087524Y0169596D01*
X0087496Y0169498D01*
X0087465Y0169401D01*
X0087430Y0169305D01*
X0087391Y0169211D01*
X0087349Y0169119D01*
X0087303Y0169028D01*
X0087253Y0168939D01*
X0087201Y0168852D01*
X0087144Y0168767D01*
X0087085Y0168685D01*
X0087022Y0168605D01*
X0086957Y0168527D01*
X0086888Y0168452D01*
X0086816Y0168380D01*
X0086742Y0168310D01*
X0086665Y0168244D01*
X0086585Y0168180D01*
X0086503Y0168120D01*
X0086419Y0168063D01*
X0086333Y0168009D01*
X0086244Y0167959D01*
X0086154Y0167912D01*
X0086062Y0167869D01*
X0085968Y0167829D01*
X0085873Y0167794D01*
X0085777Y0167761D01*
X0085679Y0167733D01*
X0085580Y0167708D01*
X0085481Y0167688D01*
X0085380Y0167671D01*
X0085279Y0167658D01*
X0085178Y0167649D01*
X0085076Y0167644D01*
X0084975Y0167643D01*
X0084873Y0167646D01*
X0084771Y0167653D01*
X0084670Y0167664D01*
X0084570Y0167679D01*
X0084470Y0167698D01*
X0084370Y0167720D01*
X0084272Y0167747D01*
X0084175Y0167777D01*
X0084079Y0167811D01*
X0083985Y0167849D01*
X0083892Y0167890D01*
X0083801Y0167935D01*
X0083711Y0167984D01*
X0083624Y0168036D01*
X0083538Y0168091D01*
X0083455Y0168150D01*
X0083375Y0168212D01*
X0083296Y0168277D01*
X0083221Y0168345D01*
X0083148Y0168416D01*
X0083077Y0168489D01*
X0083010Y0168566D01*
X0082946Y0168645D01*
X0082885Y0168726D01*
X0082827Y0168810D01*
X0082773Y0168895D01*
X0082721Y0168983D01*
X0082674Y0169073D01*
X0082630Y0169165D01*
X0082589Y0169258D01*
X0082552Y0169353D01*
X0082519Y0169449D01*
X0082490Y0169547D01*
X0082464Y0169645D01*
X0082442Y0169745D01*
X0082425Y0169845D01*
X0082411Y0169945D01*
X0082401Y0170047D01*
X0082395Y0170148D01*
X0082393Y0170250D01*
X0082393Y0160250D02*
X0082395Y0160352D01*
X0082401Y0160453D01*
X0082411Y0160555D01*
X0082425Y0160655D01*
X0082442Y0160755D01*
X0082464Y0160855D01*
X0082490Y0160953D01*
X0082519Y0161051D01*
X0082552Y0161147D01*
X0082589Y0161242D01*
X0082630Y0161335D01*
X0082674Y0161427D01*
X0082721Y0161517D01*
X0082773Y0161605D01*
X0082827Y0161690D01*
X0082885Y0161774D01*
X0082946Y0161855D01*
X0083010Y0161934D01*
X0083077Y0162011D01*
X0083148Y0162084D01*
X0083221Y0162155D01*
X0083296Y0162223D01*
X0083375Y0162288D01*
X0083455Y0162350D01*
X0083538Y0162409D01*
X0083624Y0162464D01*
X0083711Y0162516D01*
X0083801Y0162565D01*
X0083892Y0162610D01*
X0083985Y0162651D01*
X0084079Y0162689D01*
X0084175Y0162723D01*
X0084272Y0162753D01*
X0084370Y0162780D01*
X0084470Y0162802D01*
X0084570Y0162821D01*
X0084670Y0162836D01*
X0084771Y0162847D01*
X0084873Y0162854D01*
X0084975Y0162857D01*
X0085076Y0162856D01*
X0085178Y0162851D01*
X0085279Y0162842D01*
X0085380Y0162829D01*
X0085481Y0162812D01*
X0085580Y0162792D01*
X0085679Y0162767D01*
X0085777Y0162739D01*
X0085873Y0162706D01*
X0085968Y0162671D01*
X0086062Y0162631D01*
X0086154Y0162588D01*
X0086244Y0162541D01*
X0086333Y0162491D01*
X0086419Y0162437D01*
X0086503Y0162380D01*
X0086585Y0162320D01*
X0086665Y0162256D01*
X0086742Y0162190D01*
X0086816Y0162120D01*
X0086888Y0162048D01*
X0086957Y0161973D01*
X0087022Y0161895D01*
X0087085Y0161815D01*
X0087144Y0161733D01*
X0087201Y0161648D01*
X0087253Y0161561D01*
X0087303Y0161472D01*
X0087349Y0161381D01*
X0087391Y0161289D01*
X0087430Y0161195D01*
X0087465Y0161099D01*
X0087496Y0161002D01*
X0087524Y0160904D01*
X0087547Y0160805D01*
X0087567Y0160705D01*
X0087583Y0160605D01*
X0087595Y0160504D01*
X0087603Y0160403D01*
X0087607Y0160301D01*
X0087607Y0160199D01*
X0087603Y0160097D01*
X0087595Y0159996D01*
X0087583Y0159895D01*
X0087567Y0159795D01*
X0087547Y0159695D01*
X0087524Y0159596D01*
X0087496Y0159498D01*
X0087465Y0159401D01*
X0087430Y0159305D01*
X0087391Y0159211D01*
X0087349Y0159119D01*
X0087303Y0159028D01*
X0087253Y0158939D01*
X0087201Y0158852D01*
X0087144Y0158767D01*
X0087085Y0158685D01*
X0087022Y0158605D01*
X0086957Y0158527D01*
X0086888Y0158452D01*
X0086816Y0158380D01*
X0086742Y0158310D01*
X0086665Y0158244D01*
X0086585Y0158180D01*
X0086503Y0158120D01*
X0086419Y0158063D01*
X0086333Y0158009D01*
X0086244Y0157959D01*
X0086154Y0157912D01*
X0086062Y0157869D01*
X0085968Y0157829D01*
X0085873Y0157794D01*
X0085777Y0157761D01*
X0085679Y0157733D01*
X0085580Y0157708D01*
X0085481Y0157688D01*
X0085380Y0157671D01*
X0085279Y0157658D01*
X0085178Y0157649D01*
X0085076Y0157644D01*
X0084975Y0157643D01*
X0084873Y0157646D01*
X0084771Y0157653D01*
X0084670Y0157664D01*
X0084570Y0157679D01*
X0084470Y0157698D01*
X0084370Y0157720D01*
X0084272Y0157747D01*
X0084175Y0157777D01*
X0084079Y0157811D01*
X0083985Y0157849D01*
X0083892Y0157890D01*
X0083801Y0157935D01*
X0083711Y0157984D01*
X0083624Y0158036D01*
X0083538Y0158091D01*
X0083455Y0158150D01*
X0083375Y0158212D01*
X0083296Y0158277D01*
X0083221Y0158345D01*
X0083148Y0158416D01*
X0083077Y0158489D01*
X0083010Y0158566D01*
X0082946Y0158645D01*
X0082885Y0158726D01*
X0082827Y0158810D01*
X0082773Y0158895D01*
X0082721Y0158983D01*
X0082674Y0159073D01*
X0082630Y0159165D01*
X0082589Y0159258D01*
X0082552Y0159353D01*
X0082519Y0159449D01*
X0082490Y0159547D01*
X0082464Y0159645D01*
X0082442Y0159745D01*
X0082425Y0159845D01*
X0082411Y0159945D01*
X0082401Y0160047D01*
X0082395Y0160148D01*
X0082393Y0160250D01*
X0082395Y0160352D01*
X0082401Y0160453D01*
X0082411Y0160555D01*
X0082425Y0160655D01*
X0082442Y0160755D01*
X0082464Y0160855D01*
X0082490Y0160953D01*
X0082519Y0161051D01*
X0082552Y0161147D01*
X0082589Y0161242D01*
X0082630Y0161335D01*
X0082674Y0161427D01*
X0082721Y0161517D01*
X0082773Y0161605D01*
X0082827Y0161690D01*
X0082885Y0161774D01*
X0082946Y0161855D01*
X0083010Y0161934D01*
X0083077Y0162011D01*
X0083148Y0162084D01*
X0083221Y0162155D01*
X0083296Y0162223D01*
X0083375Y0162288D01*
X0083455Y0162350D01*
X0083538Y0162409D01*
X0083624Y0162464D01*
X0083711Y0162516D01*
X0083801Y0162565D01*
X0083892Y0162610D01*
X0083985Y0162651D01*
X0084079Y0162689D01*
X0084175Y0162723D01*
X0084272Y0162753D01*
X0084370Y0162780D01*
X0084470Y0162802D01*
X0084570Y0162821D01*
X0084670Y0162836D01*
X0084771Y0162847D01*
X0084873Y0162854D01*
X0084975Y0162857D01*
X0085076Y0162856D01*
X0085178Y0162851D01*
X0085279Y0162842D01*
X0085380Y0162829D01*
X0085481Y0162812D01*
X0085580Y0162792D01*
X0085679Y0162767D01*
X0085777Y0162739D01*
X0085873Y0162706D01*
X0085968Y0162671D01*
X0086062Y0162631D01*
X0086154Y0162588D01*
X0086244Y0162541D01*
X0086333Y0162491D01*
X0086419Y0162437D01*
X0086503Y0162380D01*
X0086585Y0162320D01*
X0086665Y0162256D01*
X0086742Y0162190D01*
X0086816Y0162120D01*
X0086888Y0162048D01*
X0086957Y0161973D01*
X0087022Y0161895D01*
X0087085Y0161815D01*
X0087144Y0161733D01*
X0087201Y0161648D01*
X0087253Y0161561D01*
X0087303Y0161472D01*
X0087349Y0161381D01*
X0087391Y0161289D01*
X0087430Y0161195D01*
X0087465Y0161099D01*
X0087496Y0161002D01*
X0087524Y0160904D01*
X0087547Y0160805D01*
X0087567Y0160705D01*
X0087583Y0160605D01*
X0087595Y0160504D01*
X0087603Y0160403D01*
X0087607Y0160301D01*
X0087607Y0160199D01*
X0087603Y0160097D01*
X0087595Y0159996D01*
X0087583Y0159895D01*
X0087567Y0159795D01*
X0087547Y0159695D01*
X0087524Y0159596D01*
X0087496Y0159498D01*
X0087465Y0159401D01*
X0087430Y0159305D01*
X0087391Y0159211D01*
X0087349Y0159119D01*
X0087303Y0159028D01*
X0087253Y0158939D01*
X0087201Y0158852D01*
X0087144Y0158767D01*
X0087085Y0158685D01*
X0087022Y0158605D01*
X0086957Y0158527D01*
X0086888Y0158452D01*
X0086816Y0158380D01*
X0086742Y0158310D01*
X0086665Y0158244D01*
X0086585Y0158180D01*
X0086503Y0158120D01*
X0086419Y0158063D01*
X0086333Y0158009D01*
X0086244Y0157959D01*
X0086154Y0157912D01*
X0086062Y0157869D01*
X0085968Y0157829D01*
X0085873Y0157794D01*
X0085777Y0157761D01*
X0085679Y0157733D01*
X0085580Y0157708D01*
X0085481Y0157688D01*
X0085380Y0157671D01*
X0085279Y0157658D01*
X0085178Y0157649D01*
X0085076Y0157644D01*
X0084975Y0157643D01*
X0084873Y0157646D01*
X0084771Y0157653D01*
X0084670Y0157664D01*
X0084570Y0157679D01*
X0084470Y0157698D01*
X0084370Y0157720D01*
X0084272Y0157747D01*
X0084175Y0157777D01*
X0084079Y0157811D01*
X0083985Y0157849D01*
X0083892Y0157890D01*
X0083801Y0157935D01*
X0083711Y0157984D01*
X0083624Y0158036D01*
X0083538Y0158091D01*
X0083455Y0158150D01*
X0083375Y0158212D01*
X0083296Y0158277D01*
X0083221Y0158345D01*
X0083148Y0158416D01*
X0083077Y0158489D01*
X0083010Y0158566D01*
X0082946Y0158645D01*
X0082885Y0158726D01*
X0082827Y0158810D01*
X0082773Y0158895D01*
X0082721Y0158983D01*
X0082674Y0159073D01*
X0082630Y0159165D01*
X0082589Y0159258D01*
X0082552Y0159353D01*
X0082519Y0159449D01*
X0082490Y0159547D01*
X0082464Y0159645D01*
X0082442Y0159745D01*
X0082425Y0159845D01*
X0082411Y0159945D01*
X0082401Y0160047D01*
X0082395Y0160148D01*
X0082393Y0160250D01*
X0356900Y0627350D02*
X0356902Y0627451D01*
X0356908Y0627553D01*
X0356918Y0627654D01*
X0356932Y0627754D01*
X0356949Y0627854D01*
X0356971Y0627953D01*
X0356996Y0628051D01*
X0357026Y0628149D01*
X0357059Y0628245D01*
X0357095Y0628339D01*
X0357136Y0628432D01*
X0357180Y0628524D01*
X0357227Y0628613D01*
X0357279Y0628701D01*
X0357333Y0628787D01*
X0357391Y0628870D01*
X0357452Y0628951D01*
X0357516Y0629030D01*
X0357583Y0629106D01*
X0357653Y0629179D01*
X0357725Y0629250D01*
X0357801Y0629318D01*
X0357879Y0629383D01*
X0357959Y0629444D01*
X0358042Y0629503D01*
X0358127Y0629558D01*
X0358215Y0629610D01*
X0358304Y0629659D01*
X0358395Y0629703D01*
X0358487Y0629745D01*
X0358582Y0629782D01*
X0358677Y0629816D01*
X0358774Y0629847D01*
X0358872Y0629873D01*
X0358971Y0629896D01*
X0359071Y0629914D01*
X0359171Y0629929D01*
X0359272Y0629940D01*
X0359373Y0629947D01*
X0359475Y0629950D01*
X0359576Y0629949D01*
X0359677Y0629944D01*
X0359779Y0629935D01*
X0359879Y0629922D01*
X0359979Y0629905D01*
X0360079Y0629885D01*
X0360177Y0629860D01*
X0360274Y0629832D01*
X0360371Y0629800D01*
X0360466Y0629764D01*
X0360559Y0629725D01*
X0360651Y0629681D01*
X0360741Y0629635D01*
X0360829Y0629585D01*
X0360915Y0629531D01*
X0360999Y0629474D01*
X0361081Y0629414D01*
X0361160Y0629351D01*
X0361237Y0629284D01*
X0361311Y0629215D01*
X0361383Y0629143D01*
X0361451Y0629068D01*
X0361517Y0628991D01*
X0361579Y0628911D01*
X0361639Y0628829D01*
X0361695Y0628744D01*
X0361747Y0628657D01*
X0361797Y0628569D01*
X0361843Y0628478D01*
X0361885Y0628386D01*
X0361923Y0628292D01*
X0361958Y0628197D01*
X0361989Y0628100D01*
X0362017Y0628002D01*
X0362040Y0627904D01*
X0362060Y0627804D01*
X0362076Y0627704D01*
X0362088Y0627603D01*
X0362096Y0627502D01*
X0362100Y0627401D01*
X0362100Y0627299D01*
X0362096Y0627198D01*
X0362088Y0627097D01*
X0362076Y0626996D01*
X0362060Y0626896D01*
X0362040Y0626796D01*
X0362017Y0626698D01*
X0361989Y0626600D01*
X0361958Y0626503D01*
X0361923Y0626408D01*
X0361885Y0626314D01*
X0361843Y0626222D01*
X0361797Y0626131D01*
X0361747Y0626043D01*
X0361695Y0625956D01*
X0361639Y0625871D01*
X0361579Y0625789D01*
X0361517Y0625709D01*
X0361451Y0625632D01*
X0361383Y0625557D01*
X0361311Y0625485D01*
X0361237Y0625416D01*
X0361160Y0625349D01*
X0361081Y0625286D01*
X0360999Y0625226D01*
X0360915Y0625169D01*
X0360829Y0625115D01*
X0360741Y0625065D01*
X0360651Y0625019D01*
X0360559Y0624975D01*
X0360466Y0624936D01*
X0360371Y0624900D01*
X0360274Y0624868D01*
X0360177Y0624840D01*
X0360079Y0624815D01*
X0359979Y0624795D01*
X0359879Y0624778D01*
X0359779Y0624765D01*
X0359677Y0624756D01*
X0359576Y0624751D01*
X0359475Y0624750D01*
X0359373Y0624753D01*
X0359272Y0624760D01*
X0359171Y0624771D01*
X0359071Y0624786D01*
X0358971Y0624804D01*
X0358872Y0624827D01*
X0358774Y0624853D01*
X0358677Y0624884D01*
X0358582Y0624918D01*
X0358487Y0624955D01*
X0358395Y0624997D01*
X0358304Y0625041D01*
X0358215Y0625090D01*
X0358127Y0625142D01*
X0358042Y0625197D01*
X0357959Y0625256D01*
X0357879Y0625317D01*
X0357801Y0625382D01*
X0357725Y0625450D01*
X0357653Y0625521D01*
X0357583Y0625594D01*
X0357516Y0625670D01*
X0357452Y0625749D01*
X0357391Y0625830D01*
X0357333Y0625913D01*
X0357279Y0625999D01*
X0357227Y0626087D01*
X0357180Y0626176D01*
X0357136Y0626268D01*
X0357095Y0626361D01*
X0357059Y0626455D01*
X0357026Y0626551D01*
X0356996Y0626649D01*
X0356971Y0626747D01*
X0356949Y0626846D01*
X0356932Y0626946D01*
X0356918Y0627046D01*
X0356908Y0627147D01*
X0356902Y0627249D01*
X0356900Y0627350D01*
X0356900Y0637350D02*
X0356902Y0637451D01*
X0356908Y0637553D01*
X0356918Y0637654D01*
X0356932Y0637754D01*
X0356949Y0637854D01*
X0356971Y0637953D01*
X0356996Y0638051D01*
X0357026Y0638149D01*
X0357059Y0638245D01*
X0357095Y0638339D01*
X0357136Y0638432D01*
X0357180Y0638524D01*
X0357227Y0638613D01*
X0357279Y0638701D01*
X0357333Y0638787D01*
X0357391Y0638870D01*
X0357452Y0638951D01*
X0357516Y0639030D01*
X0357583Y0639106D01*
X0357653Y0639179D01*
X0357725Y0639250D01*
X0357801Y0639318D01*
X0357879Y0639383D01*
X0357959Y0639444D01*
X0358042Y0639503D01*
X0358127Y0639558D01*
X0358215Y0639610D01*
X0358304Y0639659D01*
X0358395Y0639703D01*
X0358487Y0639745D01*
X0358582Y0639782D01*
X0358677Y0639816D01*
X0358774Y0639847D01*
X0358872Y0639873D01*
X0358971Y0639896D01*
X0359071Y0639914D01*
X0359171Y0639929D01*
X0359272Y0639940D01*
X0359373Y0639947D01*
X0359475Y0639950D01*
X0359576Y0639949D01*
X0359677Y0639944D01*
X0359779Y0639935D01*
X0359879Y0639922D01*
X0359979Y0639905D01*
X0360079Y0639885D01*
X0360177Y0639860D01*
X0360274Y0639832D01*
X0360371Y0639800D01*
X0360466Y0639764D01*
X0360559Y0639725D01*
X0360651Y0639681D01*
X0360741Y0639635D01*
X0360829Y0639585D01*
X0360915Y0639531D01*
X0360999Y0639474D01*
X0361081Y0639414D01*
X0361160Y0639351D01*
X0361237Y0639284D01*
X0361311Y0639215D01*
X0361383Y0639143D01*
X0361451Y0639068D01*
X0361517Y0638991D01*
X0361579Y0638911D01*
X0361639Y0638829D01*
X0361695Y0638744D01*
X0361747Y0638657D01*
X0361797Y0638569D01*
X0361843Y0638478D01*
X0361885Y0638386D01*
X0361923Y0638292D01*
X0361958Y0638197D01*
X0361989Y0638100D01*
X0362017Y0638002D01*
X0362040Y0637904D01*
X0362060Y0637804D01*
X0362076Y0637704D01*
X0362088Y0637603D01*
X0362096Y0637502D01*
X0362100Y0637401D01*
X0362100Y0637299D01*
X0362096Y0637198D01*
X0362088Y0637097D01*
X0362076Y0636996D01*
X0362060Y0636896D01*
X0362040Y0636796D01*
X0362017Y0636698D01*
X0361989Y0636600D01*
X0361958Y0636503D01*
X0361923Y0636408D01*
X0361885Y0636314D01*
X0361843Y0636222D01*
X0361797Y0636131D01*
X0361747Y0636043D01*
X0361695Y0635956D01*
X0361639Y0635871D01*
X0361579Y0635789D01*
X0361517Y0635709D01*
X0361451Y0635632D01*
X0361383Y0635557D01*
X0361311Y0635485D01*
X0361237Y0635416D01*
X0361160Y0635349D01*
X0361081Y0635286D01*
X0360999Y0635226D01*
X0360915Y0635169D01*
X0360829Y0635115D01*
X0360741Y0635065D01*
X0360651Y0635019D01*
X0360559Y0634975D01*
X0360466Y0634936D01*
X0360371Y0634900D01*
X0360274Y0634868D01*
X0360177Y0634840D01*
X0360079Y0634815D01*
X0359979Y0634795D01*
X0359879Y0634778D01*
X0359779Y0634765D01*
X0359677Y0634756D01*
X0359576Y0634751D01*
X0359475Y0634750D01*
X0359373Y0634753D01*
X0359272Y0634760D01*
X0359171Y0634771D01*
X0359071Y0634786D01*
X0358971Y0634804D01*
X0358872Y0634827D01*
X0358774Y0634853D01*
X0358677Y0634884D01*
X0358582Y0634918D01*
X0358487Y0634955D01*
X0358395Y0634997D01*
X0358304Y0635041D01*
X0358215Y0635090D01*
X0358127Y0635142D01*
X0358042Y0635197D01*
X0357959Y0635256D01*
X0357879Y0635317D01*
X0357801Y0635382D01*
X0357725Y0635450D01*
X0357653Y0635521D01*
X0357583Y0635594D01*
X0357516Y0635670D01*
X0357452Y0635749D01*
X0357391Y0635830D01*
X0357333Y0635913D01*
X0357279Y0635999D01*
X0357227Y0636087D01*
X0357180Y0636176D01*
X0357136Y0636268D01*
X0357095Y0636361D01*
X0357059Y0636455D01*
X0357026Y0636551D01*
X0356996Y0636649D01*
X0356971Y0636747D01*
X0356949Y0636846D01*
X0356932Y0636946D01*
X0356918Y0637046D01*
X0356908Y0637147D01*
X0356902Y0637249D01*
X0356900Y0637350D01*
X0366893Y0637350D02*
X0366895Y0637452D01*
X0366901Y0637553D01*
X0366911Y0637655D01*
X0366925Y0637755D01*
X0366942Y0637855D01*
X0366964Y0637955D01*
X0366990Y0638053D01*
X0367019Y0638151D01*
X0367052Y0638247D01*
X0367089Y0638342D01*
X0367130Y0638435D01*
X0367174Y0638527D01*
X0367221Y0638617D01*
X0367273Y0638705D01*
X0367327Y0638790D01*
X0367385Y0638874D01*
X0367446Y0638955D01*
X0367510Y0639034D01*
X0367577Y0639111D01*
X0367648Y0639184D01*
X0367721Y0639255D01*
X0367796Y0639323D01*
X0367875Y0639388D01*
X0367955Y0639450D01*
X0368038Y0639509D01*
X0368124Y0639564D01*
X0368211Y0639616D01*
X0368301Y0639665D01*
X0368392Y0639710D01*
X0368485Y0639751D01*
X0368579Y0639789D01*
X0368675Y0639823D01*
X0368772Y0639853D01*
X0368870Y0639880D01*
X0368970Y0639902D01*
X0369070Y0639921D01*
X0369170Y0639936D01*
X0369271Y0639947D01*
X0369373Y0639954D01*
X0369475Y0639957D01*
X0369576Y0639956D01*
X0369678Y0639951D01*
X0369779Y0639942D01*
X0369880Y0639929D01*
X0369981Y0639912D01*
X0370080Y0639892D01*
X0370179Y0639867D01*
X0370277Y0639839D01*
X0370373Y0639806D01*
X0370468Y0639771D01*
X0370562Y0639731D01*
X0370654Y0639688D01*
X0370744Y0639641D01*
X0370833Y0639591D01*
X0370919Y0639537D01*
X0371003Y0639480D01*
X0371085Y0639420D01*
X0371165Y0639356D01*
X0371242Y0639290D01*
X0371316Y0639220D01*
X0371388Y0639148D01*
X0371457Y0639073D01*
X0371522Y0638995D01*
X0371585Y0638915D01*
X0371644Y0638833D01*
X0371701Y0638748D01*
X0371753Y0638661D01*
X0371803Y0638572D01*
X0371849Y0638481D01*
X0371891Y0638389D01*
X0371930Y0638295D01*
X0371965Y0638199D01*
X0371996Y0638102D01*
X0372024Y0638004D01*
X0372047Y0637905D01*
X0372067Y0637805D01*
X0372083Y0637705D01*
X0372095Y0637604D01*
X0372103Y0637503D01*
X0372107Y0637401D01*
X0372107Y0637299D01*
X0372103Y0637197D01*
X0372095Y0637096D01*
X0372083Y0636995D01*
X0372067Y0636895D01*
X0372047Y0636795D01*
X0372024Y0636696D01*
X0371996Y0636598D01*
X0371965Y0636501D01*
X0371930Y0636405D01*
X0371891Y0636311D01*
X0371849Y0636219D01*
X0371803Y0636128D01*
X0371753Y0636039D01*
X0371701Y0635952D01*
X0371644Y0635867D01*
X0371585Y0635785D01*
X0371522Y0635705D01*
X0371457Y0635627D01*
X0371388Y0635552D01*
X0371316Y0635480D01*
X0371242Y0635410D01*
X0371165Y0635344D01*
X0371085Y0635280D01*
X0371003Y0635220D01*
X0370919Y0635163D01*
X0370833Y0635109D01*
X0370744Y0635059D01*
X0370654Y0635012D01*
X0370562Y0634969D01*
X0370468Y0634929D01*
X0370373Y0634894D01*
X0370277Y0634861D01*
X0370179Y0634833D01*
X0370080Y0634808D01*
X0369981Y0634788D01*
X0369880Y0634771D01*
X0369779Y0634758D01*
X0369678Y0634749D01*
X0369576Y0634744D01*
X0369475Y0634743D01*
X0369373Y0634746D01*
X0369271Y0634753D01*
X0369170Y0634764D01*
X0369070Y0634779D01*
X0368970Y0634798D01*
X0368870Y0634820D01*
X0368772Y0634847D01*
X0368675Y0634877D01*
X0368579Y0634911D01*
X0368485Y0634949D01*
X0368392Y0634990D01*
X0368301Y0635035D01*
X0368211Y0635084D01*
X0368124Y0635136D01*
X0368038Y0635191D01*
X0367955Y0635250D01*
X0367875Y0635312D01*
X0367796Y0635377D01*
X0367721Y0635445D01*
X0367648Y0635516D01*
X0367577Y0635589D01*
X0367510Y0635666D01*
X0367446Y0635745D01*
X0367385Y0635826D01*
X0367327Y0635910D01*
X0367273Y0635995D01*
X0367221Y0636083D01*
X0367174Y0636173D01*
X0367130Y0636265D01*
X0367089Y0636358D01*
X0367052Y0636453D01*
X0367019Y0636549D01*
X0366990Y0636647D01*
X0366964Y0636745D01*
X0366942Y0636845D01*
X0366925Y0636945D01*
X0366911Y0637045D01*
X0366901Y0637147D01*
X0366895Y0637248D01*
X0366893Y0637350D01*
X0366893Y0627350D02*
X0366895Y0627452D01*
X0366901Y0627553D01*
X0366911Y0627655D01*
X0366925Y0627755D01*
X0366942Y0627855D01*
X0366964Y0627955D01*
X0366990Y0628053D01*
X0367019Y0628151D01*
X0367052Y0628247D01*
X0367089Y0628342D01*
X0367130Y0628435D01*
X0367174Y0628527D01*
X0367221Y0628617D01*
X0367273Y0628705D01*
X0367327Y0628790D01*
X0367385Y0628874D01*
X0367446Y0628955D01*
X0367510Y0629034D01*
X0367577Y0629111D01*
X0367648Y0629184D01*
X0367721Y0629255D01*
X0367796Y0629323D01*
X0367875Y0629388D01*
X0367955Y0629450D01*
X0368038Y0629509D01*
X0368124Y0629564D01*
X0368211Y0629616D01*
X0368301Y0629665D01*
X0368392Y0629710D01*
X0368485Y0629751D01*
X0368579Y0629789D01*
X0368675Y0629823D01*
X0368772Y0629853D01*
X0368870Y0629880D01*
X0368970Y0629902D01*
X0369070Y0629921D01*
X0369170Y0629936D01*
X0369271Y0629947D01*
X0369373Y0629954D01*
X0369475Y0629957D01*
X0369576Y0629956D01*
X0369678Y0629951D01*
X0369779Y0629942D01*
X0369880Y0629929D01*
X0369981Y0629912D01*
X0370080Y0629892D01*
X0370179Y0629867D01*
X0370277Y0629839D01*
X0370373Y0629806D01*
X0370468Y0629771D01*
X0370562Y0629731D01*
X0370654Y0629688D01*
X0370744Y0629641D01*
X0370833Y0629591D01*
X0370919Y0629537D01*
X0371003Y0629480D01*
X0371085Y0629420D01*
X0371165Y0629356D01*
X0371242Y0629290D01*
X0371316Y0629220D01*
X0371388Y0629148D01*
X0371457Y0629073D01*
X0371522Y0628995D01*
X0371585Y0628915D01*
X0371644Y0628833D01*
X0371701Y0628748D01*
X0371753Y0628661D01*
X0371803Y0628572D01*
X0371849Y0628481D01*
X0371891Y0628389D01*
X0371930Y0628295D01*
X0371965Y0628199D01*
X0371996Y0628102D01*
X0372024Y0628004D01*
X0372047Y0627905D01*
X0372067Y0627805D01*
X0372083Y0627705D01*
X0372095Y0627604D01*
X0372103Y0627503D01*
X0372107Y0627401D01*
X0372107Y0627299D01*
X0372103Y0627197D01*
X0372095Y0627096D01*
X0372083Y0626995D01*
X0372067Y0626895D01*
X0372047Y0626795D01*
X0372024Y0626696D01*
X0371996Y0626598D01*
X0371965Y0626501D01*
X0371930Y0626405D01*
X0371891Y0626311D01*
X0371849Y0626219D01*
X0371803Y0626128D01*
X0371753Y0626039D01*
X0371701Y0625952D01*
X0371644Y0625867D01*
X0371585Y0625785D01*
X0371522Y0625705D01*
X0371457Y0625627D01*
X0371388Y0625552D01*
X0371316Y0625480D01*
X0371242Y0625410D01*
X0371165Y0625344D01*
X0371085Y0625280D01*
X0371003Y0625220D01*
X0370919Y0625163D01*
X0370833Y0625109D01*
X0370744Y0625059D01*
X0370654Y0625012D01*
X0370562Y0624969D01*
X0370468Y0624929D01*
X0370373Y0624894D01*
X0370277Y0624861D01*
X0370179Y0624833D01*
X0370080Y0624808D01*
X0369981Y0624788D01*
X0369880Y0624771D01*
X0369779Y0624758D01*
X0369678Y0624749D01*
X0369576Y0624744D01*
X0369475Y0624743D01*
X0369373Y0624746D01*
X0369271Y0624753D01*
X0369170Y0624764D01*
X0369070Y0624779D01*
X0368970Y0624798D01*
X0368870Y0624820D01*
X0368772Y0624847D01*
X0368675Y0624877D01*
X0368579Y0624911D01*
X0368485Y0624949D01*
X0368392Y0624990D01*
X0368301Y0625035D01*
X0368211Y0625084D01*
X0368124Y0625136D01*
X0368038Y0625191D01*
X0367955Y0625250D01*
X0367875Y0625312D01*
X0367796Y0625377D01*
X0367721Y0625445D01*
X0367648Y0625516D01*
X0367577Y0625589D01*
X0367510Y0625666D01*
X0367446Y0625745D01*
X0367385Y0625826D01*
X0367327Y0625910D01*
X0367273Y0625995D01*
X0367221Y0626083D01*
X0367174Y0626173D01*
X0367130Y0626265D01*
X0367089Y0626358D01*
X0367052Y0626453D01*
X0367019Y0626549D01*
X0366990Y0626647D01*
X0366964Y0626745D01*
X0366942Y0626845D01*
X0366925Y0626945D01*
X0366911Y0627045D01*
X0366901Y0627147D01*
X0366895Y0627248D01*
X0366893Y0627350D01*
X0373900Y0659350D02*
X0373902Y0659451D01*
X0373908Y0659553D01*
X0373918Y0659654D01*
X0373932Y0659754D01*
X0373949Y0659854D01*
X0373971Y0659953D01*
X0373996Y0660051D01*
X0374026Y0660149D01*
X0374059Y0660245D01*
X0374095Y0660339D01*
X0374136Y0660432D01*
X0374180Y0660524D01*
X0374227Y0660613D01*
X0374279Y0660701D01*
X0374333Y0660787D01*
X0374391Y0660870D01*
X0374452Y0660951D01*
X0374516Y0661030D01*
X0374583Y0661106D01*
X0374653Y0661179D01*
X0374725Y0661250D01*
X0374801Y0661318D01*
X0374879Y0661383D01*
X0374959Y0661444D01*
X0375042Y0661503D01*
X0375127Y0661558D01*
X0375215Y0661610D01*
X0375304Y0661659D01*
X0375395Y0661703D01*
X0375487Y0661745D01*
X0375582Y0661782D01*
X0375677Y0661816D01*
X0375774Y0661847D01*
X0375872Y0661873D01*
X0375971Y0661896D01*
X0376071Y0661914D01*
X0376171Y0661929D01*
X0376272Y0661940D01*
X0376373Y0661947D01*
X0376475Y0661950D01*
X0376576Y0661949D01*
X0376677Y0661944D01*
X0376779Y0661935D01*
X0376879Y0661922D01*
X0376979Y0661905D01*
X0377079Y0661885D01*
X0377177Y0661860D01*
X0377274Y0661832D01*
X0377371Y0661800D01*
X0377466Y0661764D01*
X0377559Y0661725D01*
X0377651Y0661681D01*
X0377741Y0661635D01*
X0377829Y0661585D01*
X0377915Y0661531D01*
X0377999Y0661474D01*
X0378081Y0661414D01*
X0378160Y0661351D01*
X0378237Y0661284D01*
X0378311Y0661215D01*
X0378383Y0661143D01*
X0378451Y0661068D01*
X0378517Y0660991D01*
X0378579Y0660911D01*
X0378639Y0660829D01*
X0378695Y0660744D01*
X0378747Y0660657D01*
X0378797Y0660569D01*
X0378843Y0660478D01*
X0378885Y0660386D01*
X0378923Y0660292D01*
X0378958Y0660197D01*
X0378989Y0660100D01*
X0379017Y0660002D01*
X0379040Y0659904D01*
X0379060Y0659804D01*
X0379076Y0659704D01*
X0379088Y0659603D01*
X0379096Y0659502D01*
X0379100Y0659401D01*
X0379100Y0659299D01*
X0379096Y0659198D01*
X0379088Y0659097D01*
X0379076Y0658996D01*
X0379060Y0658896D01*
X0379040Y0658796D01*
X0379017Y0658698D01*
X0378989Y0658600D01*
X0378958Y0658503D01*
X0378923Y0658408D01*
X0378885Y0658314D01*
X0378843Y0658222D01*
X0378797Y0658131D01*
X0378747Y0658043D01*
X0378695Y0657956D01*
X0378639Y0657871D01*
X0378579Y0657789D01*
X0378517Y0657709D01*
X0378451Y0657632D01*
X0378383Y0657557D01*
X0378311Y0657485D01*
X0378237Y0657416D01*
X0378160Y0657349D01*
X0378081Y0657286D01*
X0377999Y0657226D01*
X0377915Y0657169D01*
X0377829Y0657115D01*
X0377741Y0657065D01*
X0377651Y0657019D01*
X0377559Y0656975D01*
X0377466Y0656936D01*
X0377371Y0656900D01*
X0377274Y0656868D01*
X0377177Y0656840D01*
X0377079Y0656815D01*
X0376979Y0656795D01*
X0376879Y0656778D01*
X0376779Y0656765D01*
X0376677Y0656756D01*
X0376576Y0656751D01*
X0376475Y0656750D01*
X0376373Y0656753D01*
X0376272Y0656760D01*
X0376171Y0656771D01*
X0376071Y0656786D01*
X0375971Y0656804D01*
X0375872Y0656827D01*
X0375774Y0656853D01*
X0375677Y0656884D01*
X0375582Y0656918D01*
X0375487Y0656955D01*
X0375395Y0656997D01*
X0375304Y0657041D01*
X0375215Y0657090D01*
X0375127Y0657142D01*
X0375042Y0657197D01*
X0374959Y0657256D01*
X0374879Y0657317D01*
X0374801Y0657382D01*
X0374725Y0657450D01*
X0374653Y0657521D01*
X0374583Y0657594D01*
X0374516Y0657670D01*
X0374452Y0657749D01*
X0374391Y0657830D01*
X0374333Y0657913D01*
X0374279Y0657999D01*
X0374227Y0658087D01*
X0374180Y0658176D01*
X0374136Y0658268D01*
X0374095Y0658361D01*
X0374059Y0658455D01*
X0374026Y0658551D01*
X0373996Y0658649D01*
X0373971Y0658747D01*
X0373949Y0658846D01*
X0373932Y0658946D01*
X0373918Y0659046D01*
X0373908Y0659147D01*
X0373902Y0659249D01*
X0373900Y0659350D01*
X0373900Y0669350D02*
X0373902Y0669451D01*
X0373908Y0669553D01*
X0373918Y0669654D01*
X0373932Y0669754D01*
X0373949Y0669854D01*
X0373971Y0669953D01*
X0373996Y0670051D01*
X0374026Y0670149D01*
X0374059Y0670245D01*
X0374095Y0670339D01*
X0374136Y0670432D01*
X0374180Y0670524D01*
X0374227Y0670613D01*
X0374279Y0670701D01*
X0374333Y0670787D01*
X0374391Y0670870D01*
X0374452Y0670951D01*
X0374516Y0671030D01*
X0374583Y0671106D01*
X0374653Y0671179D01*
X0374725Y0671250D01*
X0374801Y0671318D01*
X0374879Y0671383D01*
X0374959Y0671444D01*
X0375042Y0671503D01*
X0375127Y0671558D01*
X0375215Y0671610D01*
X0375304Y0671659D01*
X0375395Y0671703D01*
X0375487Y0671745D01*
X0375582Y0671782D01*
X0375677Y0671816D01*
X0375774Y0671847D01*
X0375872Y0671873D01*
X0375971Y0671896D01*
X0376071Y0671914D01*
X0376171Y0671929D01*
X0376272Y0671940D01*
X0376373Y0671947D01*
X0376475Y0671950D01*
X0376576Y0671949D01*
X0376677Y0671944D01*
X0376779Y0671935D01*
X0376879Y0671922D01*
X0376979Y0671905D01*
X0377079Y0671885D01*
X0377177Y0671860D01*
X0377274Y0671832D01*
X0377371Y0671800D01*
X0377466Y0671764D01*
X0377559Y0671725D01*
X0377651Y0671681D01*
X0377741Y0671635D01*
X0377829Y0671585D01*
X0377915Y0671531D01*
X0377999Y0671474D01*
X0378081Y0671414D01*
X0378160Y0671351D01*
X0378237Y0671284D01*
X0378311Y0671215D01*
X0378383Y0671143D01*
X0378451Y0671068D01*
X0378517Y0670991D01*
X0378579Y0670911D01*
X0378639Y0670829D01*
X0378695Y0670744D01*
X0378747Y0670657D01*
X0378797Y0670569D01*
X0378843Y0670478D01*
X0378885Y0670386D01*
X0378923Y0670292D01*
X0378958Y0670197D01*
X0378989Y0670100D01*
X0379017Y0670002D01*
X0379040Y0669904D01*
X0379060Y0669804D01*
X0379076Y0669704D01*
X0379088Y0669603D01*
X0379096Y0669502D01*
X0379100Y0669401D01*
X0379100Y0669299D01*
X0379096Y0669198D01*
X0379088Y0669097D01*
X0379076Y0668996D01*
X0379060Y0668896D01*
X0379040Y0668796D01*
X0379017Y0668698D01*
X0378989Y0668600D01*
X0378958Y0668503D01*
X0378923Y0668408D01*
X0378885Y0668314D01*
X0378843Y0668222D01*
X0378797Y0668131D01*
X0378747Y0668043D01*
X0378695Y0667956D01*
X0378639Y0667871D01*
X0378579Y0667789D01*
X0378517Y0667709D01*
X0378451Y0667632D01*
X0378383Y0667557D01*
X0378311Y0667485D01*
X0378237Y0667416D01*
X0378160Y0667349D01*
X0378081Y0667286D01*
X0377999Y0667226D01*
X0377915Y0667169D01*
X0377829Y0667115D01*
X0377741Y0667065D01*
X0377651Y0667019D01*
X0377559Y0666975D01*
X0377466Y0666936D01*
X0377371Y0666900D01*
X0377274Y0666868D01*
X0377177Y0666840D01*
X0377079Y0666815D01*
X0376979Y0666795D01*
X0376879Y0666778D01*
X0376779Y0666765D01*
X0376677Y0666756D01*
X0376576Y0666751D01*
X0376475Y0666750D01*
X0376373Y0666753D01*
X0376272Y0666760D01*
X0376171Y0666771D01*
X0376071Y0666786D01*
X0375971Y0666804D01*
X0375872Y0666827D01*
X0375774Y0666853D01*
X0375677Y0666884D01*
X0375582Y0666918D01*
X0375487Y0666955D01*
X0375395Y0666997D01*
X0375304Y0667041D01*
X0375215Y0667090D01*
X0375127Y0667142D01*
X0375042Y0667197D01*
X0374959Y0667256D01*
X0374879Y0667317D01*
X0374801Y0667382D01*
X0374725Y0667450D01*
X0374653Y0667521D01*
X0374583Y0667594D01*
X0374516Y0667670D01*
X0374452Y0667749D01*
X0374391Y0667830D01*
X0374333Y0667913D01*
X0374279Y0667999D01*
X0374227Y0668087D01*
X0374180Y0668176D01*
X0374136Y0668268D01*
X0374095Y0668361D01*
X0374059Y0668455D01*
X0374026Y0668551D01*
X0373996Y0668649D01*
X0373971Y0668747D01*
X0373949Y0668846D01*
X0373932Y0668946D01*
X0373918Y0669046D01*
X0373908Y0669147D01*
X0373902Y0669249D01*
X0373900Y0669350D01*
X0383893Y0669350D02*
X0383895Y0669452D01*
X0383901Y0669553D01*
X0383911Y0669655D01*
X0383925Y0669755D01*
X0383942Y0669855D01*
X0383964Y0669955D01*
X0383990Y0670053D01*
X0384019Y0670151D01*
X0384052Y0670247D01*
X0384089Y0670342D01*
X0384130Y0670435D01*
X0384174Y0670527D01*
X0384221Y0670617D01*
X0384273Y0670705D01*
X0384327Y0670790D01*
X0384385Y0670874D01*
X0384446Y0670955D01*
X0384510Y0671034D01*
X0384577Y0671111D01*
X0384648Y0671184D01*
X0384721Y0671255D01*
X0384796Y0671323D01*
X0384875Y0671388D01*
X0384955Y0671450D01*
X0385038Y0671509D01*
X0385124Y0671564D01*
X0385211Y0671616D01*
X0385301Y0671665D01*
X0385392Y0671710D01*
X0385485Y0671751D01*
X0385579Y0671789D01*
X0385675Y0671823D01*
X0385772Y0671853D01*
X0385870Y0671880D01*
X0385970Y0671902D01*
X0386070Y0671921D01*
X0386170Y0671936D01*
X0386271Y0671947D01*
X0386373Y0671954D01*
X0386475Y0671957D01*
X0386576Y0671956D01*
X0386678Y0671951D01*
X0386779Y0671942D01*
X0386880Y0671929D01*
X0386981Y0671912D01*
X0387080Y0671892D01*
X0387179Y0671867D01*
X0387277Y0671839D01*
X0387373Y0671806D01*
X0387468Y0671771D01*
X0387562Y0671731D01*
X0387654Y0671688D01*
X0387744Y0671641D01*
X0387833Y0671591D01*
X0387919Y0671537D01*
X0388003Y0671480D01*
X0388085Y0671420D01*
X0388165Y0671356D01*
X0388242Y0671290D01*
X0388316Y0671220D01*
X0388388Y0671148D01*
X0388457Y0671073D01*
X0388522Y0670995D01*
X0388585Y0670915D01*
X0388644Y0670833D01*
X0388701Y0670748D01*
X0388753Y0670661D01*
X0388803Y0670572D01*
X0388849Y0670481D01*
X0388891Y0670389D01*
X0388930Y0670295D01*
X0388965Y0670199D01*
X0388996Y0670102D01*
X0389024Y0670004D01*
X0389047Y0669905D01*
X0389067Y0669805D01*
X0389083Y0669705D01*
X0389095Y0669604D01*
X0389103Y0669503D01*
X0389107Y0669401D01*
X0389107Y0669299D01*
X0389103Y0669197D01*
X0389095Y0669096D01*
X0389083Y0668995D01*
X0389067Y0668895D01*
X0389047Y0668795D01*
X0389024Y0668696D01*
X0388996Y0668598D01*
X0388965Y0668501D01*
X0388930Y0668405D01*
X0388891Y0668311D01*
X0388849Y0668219D01*
X0388803Y0668128D01*
X0388753Y0668039D01*
X0388701Y0667952D01*
X0388644Y0667867D01*
X0388585Y0667785D01*
X0388522Y0667705D01*
X0388457Y0667627D01*
X0388388Y0667552D01*
X0388316Y0667480D01*
X0388242Y0667410D01*
X0388165Y0667344D01*
X0388085Y0667280D01*
X0388003Y0667220D01*
X0387919Y0667163D01*
X0387833Y0667109D01*
X0387744Y0667059D01*
X0387654Y0667012D01*
X0387562Y0666969D01*
X0387468Y0666929D01*
X0387373Y0666894D01*
X0387277Y0666861D01*
X0387179Y0666833D01*
X0387080Y0666808D01*
X0386981Y0666788D01*
X0386880Y0666771D01*
X0386779Y0666758D01*
X0386678Y0666749D01*
X0386576Y0666744D01*
X0386475Y0666743D01*
X0386373Y0666746D01*
X0386271Y0666753D01*
X0386170Y0666764D01*
X0386070Y0666779D01*
X0385970Y0666798D01*
X0385870Y0666820D01*
X0385772Y0666847D01*
X0385675Y0666877D01*
X0385579Y0666911D01*
X0385485Y0666949D01*
X0385392Y0666990D01*
X0385301Y0667035D01*
X0385211Y0667084D01*
X0385124Y0667136D01*
X0385038Y0667191D01*
X0384955Y0667250D01*
X0384875Y0667312D01*
X0384796Y0667377D01*
X0384721Y0667445D01*
X0384648Y0667516D01*
X0384577Y0667589D01*
X0384510Y0667666D01*
X0384446Y0667745D01*
X0384385Y0667826D01*
X0384327Y0667910D01*
X0384273Y0667995D01*
X0384221Y0668083D01*
X0384174Y0668173D01*
X0384130Y0668265D01*
X0384089Y0668358D01*
X0384052Y0668453D01*
X0384019Y0668549D01*
X0383990Y0668647D01*
X0383964Y0668745D01*
X0383942Y0668845D01*
X0383925Y0668945D01*
X0383911Y0669045D01*
X0383901Y0669147D01*
X0383895Y0669248D01*
X0383893Y0669350D01*
X0383893Y0659350D02*
X0383895Y0659452D01*
X0383901Y0659553D01*
X0383911Y0659655D01*
X0383925Y0659755D01*
X0383942Y0659855D01*
X0383964Y0659955D01*
X0383990Y0660053D01*
X0384019Y0660151D01*
X0384052Y0660247D01*
X0384089Y0660342D01*
X0384130Y0660435D01*
X0384174Y0660527D01*
X0384221Y0660617D01*
X0384273Y0660705D01*
X0384327Y0660790D01*
X0384385Y0660874D01*
X0384446Y0660955D01*
X0384510Y0661034D01*
X0384577Y0661111D01*
X0384648Y0661184D01*
X0384721Y0661255D01*
X0384796Y0661323D01*
X0384875Y0661388D01*
X0384955Y0661450D01*
X0385038Y0661509D01*
X0385124Y0661564D01*
X0385211Y0661616D01*
X0385301Y0661665D01*
X0385392Y0661710D01*
X0385485Y0661751D01*
X0385579Y0661789D01*
X0385675Y0661823D01*
X0385772Y0661853D01*
X0385870Y0661880D01*
X0385970Y0661902D01*
X0386070Y0661921D01*
X0386170Y0661936D01*
X0386271Y0661947D01*
X0386373Y0661954D01*
X0386475Y0661957D01*
X0386576Y0661956D01*
X0386678Y0661951D01*
X0386779Y0661942D01*
X0386880Y0661929D01*
X0386981Y0661912D01*
X0387080Y0661892D01*
X0387179Y0661867D01*
X0387277Y0661839D01*
X0387373Y0661806D01*
X0387468Y0661771D01*
X0387562Y0661731D01*
X0387654Y0661688D01*
X0387744Y0661641D01*
X0387833Y0661591D01*
X0387919Y0661537D01*
X0388003Y0661480D01*
X0388085Y0661420D01*
X0388165Y0661356D01*
X0388242Y0661290D01*
X0388316Y0661220D01*
X0388388Y0661148D01*
X0388457Y0661073D01*
X0388522Y0660995D01*
X0388585Y0660915D01*
X0388644Y0660833D01*
X0388701Y0660748D01*
X0388753Y0660661D01*
X0388803Y0660572D01*
X0388849Y0660481D01*
X0388891Y0660389D01*
X0388930Y0660295D01*
X0388965Y0660199D01*
X0388996Y0660102D01*
X0389024Y0660004D01*
X0389047Y0659905D01*
X0389067Y0659805D01*
X0389083Y0659705D01*
X0389095Y0659604D01*
X0389103Y0659503D01*
X0389107Y0659401D01*
X0389107Y0659299D01*
X0389103Y0659197D01*
X0389095Y0659096D01*
X0389083Y0658995D01*
X0389067Y0658895D01*
X0389047Y0658795D01*
X0389024Y0658696D01*
X0388996Y0658598D01*
X0388965Y0658501D01*
X0388930Y0658405D01*
X0388891Y0658311D01*
X0388849Y0658219D01*
X0388803Y0658128D01*
X0388753Y0658039D01*
X0388701Y0657952D01*
X0388644Y0657867D01*
X0388585Y0657785D01*
X0388522Y0657705D01*
X0388457Y0657627D01*
X0388388Y0657552D01*
X0388316Y0657480D01*
X0388242Y0657410D01*
X0388165Y0657344D01*
X0388085Y0657280D01*
X0388003Y0657220D01*
X0387919Y0657163D01*
X0387833Y0657109D01*
X0387744Y0657059D01*
X0387654Y0657012D01*
X0387562Y0656969D01*
X0387468Y0656929D01*
X0387373Y0656894D01*
X0387277Y0656861D01*
X0387179Y0656833D01*
X0387080Y0656808D01*
X0386981Y0656788D01*
X0386880Y0656771D01*
X0386779Y0656758D01*
X0386678Y0656749D01*
X0386576Y0656744D01*
X0386475Y0656743D01*
X0386373Y0656746D01*
X0386271Y0656753D01*
X0386170Y0656764D01*
X0386070Y0656779D01*
X0385970Y0656798D01*
X0385870Y0656820D01*
X0385772Y0656847D01*
X0385675Y0656877D01*
X0385579Y0656911D01*
X0385485Y0656949D01*
X0385392Y0656990D01*
X0385301Y0657035D01*
X0385211Y0657084D01*
X0385124Y0657136D01*
X0385038Y0657191D01*
X0384955Y0657250D01*
X0384875Y0657312D01*
X0384796Y0657377D01*
X0384721Y0657445D01*
X0384648Y0657516D01*
X0384577Y0657589D01*
X0384510Y0657666D01*
X0384446Y0657745D01*
X0384385Y0657826D01*
X0384327Y0657910D01*
X0384273Y0657995D01*
X0384221Y0658083D01*
X0384174Y0658173D01*
X0384130Y0658265D01*
X0384089Y0658358D01*
X0384052Y0658453D01*
X0384019Y0658549D01*
X0383990Y0658647D01*
X0383964Y0658745D01*
X0383942Y0658845D01*
X0383925Y0658945D01*
X0383911Y0659045D01*
X0383901Y0659147D01*
X0383895Y0659248D01*
X0383893Y0659350D01*
X0328993Y0670250D02*
X0328995Y0670352D01*
X0329001Y0670453D01*
X0329011Y0670555D01*
X0329025Y0670655D01*
X0329042Y0670755D01*
X0329064Y0670855D01*
X0329090Y0670953D01*
X0329119Y0671051D01*
X0329152Y0671147D01*
X0329189Y0671242D01*
X0329230Y0671335D01*
X0329274Y0671427D01*
X0329321Y0671517D01*
X0329373Y0671605D01*
X0329427Y0671690D01*
X0329485Y0671774D01*
X0329546Y0671855D01*
X0329610Y0671934D01*
X0329677Y0672011D01*
X0329748Y0672084D01*
X0329821Y0672155D01*
X0329896Y0672223D01*
X0329975Y0672288D01*
X0330055Y0672350D01*
X0330138Y0672409D01*
X0330224Y0672464D01*
X0330311Y0672516D01*
X0330401Y0672565D01*
X0330492Y0672610D01*
X0330585Y0672651D01*
X0330679Y0672689D01*
X0330775Y0672723D01*
X0330872Y0672753D01*
X0330970Y0672780D01*
X0331070Y0672802D01*
X0331170Y0672821D01*
X0331270Y0672836D01*
X0331371Y0672847D01*
X0331473Y0672854D01*
X0331575Y0672857D01*
X0331676Y0672856D01*
X0331778Y0672851D01*
X0331879Y0672842D01*
X0331980Y0672829D01*
X0332081Y0672812D01*
X0332180Y0672792D01*
X0332279Y0672767D01*
X0332377Y0672739D01*
X0332473Y0672706D01*
X0332568Y0672671D01*
X0332662Y0672631D01*
X0332754Y0672588D01*
X0332844Y0672541D01*
X0332933Y0672491D01*
X0333019Y0672437D01*
X0333103Y0672380D01*
X0333185Y0672320D01*
X0333265Y0672256D01*
X0333342Y0672190D01*
X0333416Y0672120D01*
X0333488Y0672048D01*
X0333557Y0671973D01*
X0333622Y0671895D01*
X0333685Y0671815D01*
X0333744Y0671733D01*
X0333801Y0671648D01*
X0333853Y0671561D01*
X0333903Y0671472D01*
X0333949Y0671381D01*
X0333991Y0671289D01*
X0334030Y0671195D01*
X0334065Y0671099D01*
X0334096Y0671002D01*
X0334124Y0670904D01*
X0334147Y0670805D01*
X0334167Y0670705D01*
X0334183Y0670605D01*
X0334195Y0670504D01*
X0334203Y0670403D01*
X0334207Y0670301D01*
X0334207Y0670199D01*
X0334203Y0670097D01*
X0334195Y0669996D01*
X0334183Y0669895D01*
X0334167Y0669795D01*
X0334147Y0669695D01*
X0334124Y0669596D01*
X0334096Y0669498D01*
X0334065Y0669401D01*
X0334030Y0669305D01*
X0333991Y0669211D01*
X0333949Y0669119D01*
X0333903Y0669028D01*
X0333853Y0668939D01*
X0333801Y0668852D01*
X0333744Y0668767D01*
X0333685Y0668685D01*
X0333622Y0668605D01*
X0333557Y0668527D01*
X0333488Y0668452D01*
X0333416Y0668380D01*
X0333342Y0668310D01*
X0333265Y0668244D01*
X0333185Y0668180D01*
X0333103Y0668120D01*
X0333019Y0668063D01*
X0332933Y0668009D01*
X0332844Y0667959D01*
X0332754Y0667912D01*
X0332662Y0667869D01*
X0332568Y0667829D01*
X0332473Y0667794D01*
X0332377Y0667761D01*
X0332279Y0667733D01*
X0332180Y0667708D01*
X0332081Y0667688D01*
X0331980Y0667671D01*
X0331879Y0667658D01*
X0331778Y0667649D01*
X0331676Y0667644D01*
X0331575Y0667643D01*
X0331473Y0667646D01*
X0331371Y0667653D01*
X0331270Y0667664D01*
X0331170Y0667679D01*
X0331070Y0667698D01*
X0330970Y0667720D01*
X0330872Y0667747D01*
X0330775Y0667777D01*
X0330679Y0667811D01*
X0330585Y0667849D01*
X0330492Y0667890D01*
X0330401Y0667935D01*
X0330311Y0667984D01*
X0330224Y0668036D01*
X0330138Y0668091D01*
X0330055Y0668150D01*
X0329975Y0668212D01*
X0329896Y0668277D01*
X0329821Y0668345D01*
X0329748Y0668416D01*
X0329677Y0668489D01*
X0329610Y0668566D01*
X0329546Y0668645D01*
X0329485Y0668726D01*
X0329427Y0668810D01*
X0329373Y0668895D01*
X0329321Y0668983D01*
X0329274Y0669073D01*
X0329230Y0669165D01*
X0329189Y0669258D01*
X0329152Y0669353D01*
X0329119Y0669449D01*
X0329090Y0669547D01*
X0329064Y0669645D01*
X0329042Y0669745D01*
X0329025Y0669845D01*
X0329011Y0669945D01*
X0329001Y0670047D01*
X0328995Y0670148D01*
X0328993Y0670250D01*
X0319000Y0670250D02*
X0319002Y0670351D01*
X0319008Y0670453D01*
X0319018Y0670554D01*
X0319032Y0670654D01*
X0319049Y0670754D01*
X0319071Y0670853D01*
X0319096Y0670951D01*
X0319126Y0671049D01*
X0319159Y0671145D01*
X0319195Y0671239D01*
X0319236Y0671332D01*
X0319280Y0671424D01*
X0319327Y0671513D01*
X0319379Y0671601D01*
X0319433Y0671687D01*
X0319491Y0671770D01*
X0319552Y0671851D01*
X0319616Y0671930D01*
X0319683Y0672006D01*
X0319753Y0672079D01*
X0319825Y0672150D01*
X0319901Y0672218D01*
X0319979Y0672283D01*
X0320059Y0672344D01*
X0320142Y0672403D01*
X0320227Y0672458D01*
X0320315Y0672510D01*
X0320404Y0672559D01*
X0320495Y0672603D01*
X0320587Y0672645D01*
X0320682Y0672682D01*
X0320777Y0672716D01*
X0320874Y0672747D01*
X0320972Y0672773D01*
X0321071Y0672796D01*
X0321171Y0672814D01*
X0321271Y0672829D01*
X0321372Y0672840D01*
X0321473Y0672847D01*
X0321575Y0672850D01*
X0321676Y0672849D01*
X0321777Y0672844D01*
X0321879Y0672835D01*
X0321979Y0672822D01*
X0322079Y0672805D01*
X0322179Y0672785D01*
X0322277Y0672760D01*
X0322374Y0672732D01*
X0322471Y0672700D01*
X0322566Y0672664D01*
X0322659Y0672625D01*
X0322751Y0672581D01*
X0322841Y0672535D01*
X0322929Y0672485D01*
X0323015Y0672431D01*
X0323099Y0672374D01*
X0323181Y0672314D01*
X0323260Y0672251D01*
X0323337Y0672184D01*
X0323411Y0672115D01*
X0323483Y0672043D01*
X0323551Y0671968D01*
X0323617Y0671891D01*
X0323679Y0671811D01*
X0323739Y0671729D01*
X0323795Y0671644D01*
X0323847Y0671557D01*
X0323897Y0671469D01*
X0323943Y0671378D01*
X0323985Y0671286D01*
X0324023Y0671192D01*
X0324058Y0671097D01*
X0324089Y0671000D01*
X0324117Y0670902D01*
X0324140Y0670804D01*
X0324160Y0670704D01*
X0324176Y0670604D01*
X0324188Y0670503D01*
X0324196Y0670402D01*
X0324200Y0670301D01*
X0324200Y0670199D01*
X0324196Y0670098D01*
X0324188Y0669997D01*
X0324176Y0669896D01*
X0324160Y0669796D01*
X0324140Y0669696D01*
X0324117Y0669598D01*
X0324089Y0669500D01*
X0324058Y0669403D01*
X0324023Y0669308D01*
X0323985Y0669214D01*
X0323943Y0669122D01*
X0323897Y0669031D01*
X0323847Y0668943D01*
X0323795Y0668856D01*
X0323739Y0668771D01*
X0323679Y0668689D01*
X0323617Y0668609D01*
X0323551Y0668532D01*
X0323483Y0668457D01*
X0323411Y0668385D01*
X0323337Y0668316D01*
X0323260Y0668249D01*
X0323181Y0668186D01*
X0323099Y0668126D01*
X0323015Y0668069D01*
X0322929Y0668015D01*
X0322841Y0667965D01*
X0322751Y0667919D01*
X0322659Y0667875D01*
X0322566Y0667836D01*
X0322471Y0667800D01*
X0322374Y0667768D01*
X0322277Y0667740D01*
X0322179Y0667715D01*
X0322079Y0667695D01*
X0321979Y0667678D01*
X0321879Y0667665D01*
X0321777Y0667656D01*
X0321676Y0667651D01*
X0321575Y0667650D01*
X0321473Y0667653D01*
X0321372Y0667660D01*
X0321271Y0667671D01*
X0321171Y0667686D01*
X0321071Y0667704D01*
X0320972Y0667727D01*
X0320874Y0667753D01*
X0320777Y0667784D01*
X0320682Y0667818D01*
X0320587Y0667855D01*
X0320495Y0667897D01*
X0320404Y0667941D01*
X0320315Y0667990D01*
X0320227Y0668042D01*
X0320142Y0668097D01*
X0320059Y0668156D01*
X0319979Y0668217D01*
X0319901Y0668282D01*
X0319825Y0668350D01*
X0319753Y0668421D01*
X0319683Y0668494D01*
X0319616Y0668570D01*
X0319552Y0668649D01*
X0319491Y0668730D01*
X0319433Y0668813D01*
X0319379Y0668899D01*
X0319327Y0668987D01*
X0319280Y0669076D01*
X0319236Y0669168D01*
X0319195Y0669261D01*
X0319159Y0669355D01*
X0319126Y0669451D01*
X0319096Y0669549D01*
X0319071Y0669647D01*
X0319049Y0669746D01*
X0319032Y0669846D01*
X0319018Y0669946D01*
X0319008Y0670047D01*
X0319002Y0670149D01*
X0319000Y0670250D01*
X0319000Y0680250D02*
X0319002Y0680351D01*
X0319008Y0680453D01*
X0319018Y0680554D01*
X0319032Y0680654D01*
X0319049Y0680754D01*
X0319071Y0680853D01*
X0319096Y0680951D01*
X0319126Y0681049D01*
X0319159Y0681145D01*
X0319195Y0681239D01*
X0319236Y0681332D01*
X0319280Y0681424D01*
X0319327Y0681513D01*
X0319379Y0681601D01*
X0319433Y0681687D01*
X0319491Y0681770D01*
X0319552Y0681851D01*
X0319616Y0681930D01*
X0319683Y0682006D01*
X0319753Y0682079D01*
X0319825Y0682150D01*
X0319901Y0682218D01*
X0319979Y0682283D01*
X0320059Y0682344D01*
X0320142Y0682403D01*
X0320227Y0682458D01*
X0320315Y0682510D01*
X0320404Y0682559D01*
X0320495Y0682603D01*
X0320587Y0682645D01*
X0320682Y0682682D01*
X0320777Y0682716D01*
X0320874Y0682747D01*
X0320972Y0682773D01*
X0321071Y0682796D01*
X0321171Y0682814D01*
X0321271Y0682829D01*
X0321372Y0682840D01*
X0321473Y0682847D01*
X0321575Y0682850D01*
X0321676Y0682849D01*
X0321777Y0682844D01*
X0321879Y0682835D01*
X0321979Y0682822D01*
X0322079Y0682805D01*
X0322179Y0682785D01*
X0322277Y0682760D01*
X0322374Y0682732D01*
X0322471Y0682700D01*
X0322566Y0682664D01*
X0322659Y0682625D01*
X0322751Y0682581D01*
X0322841Y0682535D01*
X0322929Y0682485D01*
X0323015Y0682431D01*
X0323099Y0682374D01*
X0323181Y0682314D01*
X0323260Y0682251D01*
X0323337Y0682184D01*
X0323411Y0682115D01*
X0323483Y0682043D01*
X0323551Y0681968D01*
X0323617Y0681891D01*
X0323679Y0681811D01*
X0323739Y0681729D01*
X0323795Y0681644D01*
X0323847Y0681557D01*
X0323897Y0681469D01*
X0323943Y0681378D01*
X0323985Y0681286D01*
X0324023Y0681192D01*
X0324058Y0681097D01*
X0324089Y0681000D01*
X0324117Y0680902D01*
X0324140Y0680804D01*
X0324160Y0680704D01*
X0324176Y0680604D01*
X0324188Y0680503D01*
X0324196Y0680402D01*
X0324200Y0680301D01*
X0324200Y0680199D01*
X0324196Y0680098D01*
X0324188Y0679997D01*
X0324176Y0679896D01*
X0324160Y0679796D01*
X0324140Y0679696D01*
X0324117Y0679598D01*
X0324089Y0679500D01*
X0324058Y0679403D01*
X0324023Y0679308D01*
X0323985Y0679214D01*
X0323943Y0679122D01*
X0323897Y0679031D01*
X0323847Y0678943D01*
X0323795Y0678856D01*
X0323739Y0678771D01*
X0323679Y0678689D01*
X0323617Y0678609D01*
X0323551Y0678532D01*
X0323483Y0678457D01*
X0323411Y0678385D01*
X0323337Y0678316D01*
X0323260Y0678249D01*
X0323181Y0678186D01*
X0323099Y0678126D01*
X0323015Y0678069D01*
X0322929Y0678015D01*
X0322841Y0677965D01*
X0322751Y0677919D01*
X0322659Y0677875D01*
X0322566Y0677836D01*
X0322471Y0677800D01*
X0322374Y0677768D01*
X0322277Y0677740D01*
X0322179Y0677715D01*
X0322079Y0677695D01*
X0321979Y0677678D01*
X0321879Y0677665D01*
X0321777Y0677656D01*
X0321676Y0677651D01*
X0321575Y0677650D01*
X0321473Y0677653D01*
X0321372Y0677660D01*
X0321271Y0677671D01*
X0321171Y0677686D01*
X0321071Y0677704D01*
X0320972Y0677727D01*
X0320874Y0677753D01*
X0320777Y0677784D01*
X0320682Y0677818D01*
X0320587Y0677855D01*
X0320495Y0677897D01*
X0320404Y0677941D01*
X0320315Y0677990D01*
X0320227Y0678042D01*
X0320142Y0678097D01*
X0320059Y0678156D01*
X0319979Y0678217D01*
X0319901Y0678282D01*
X0319825Y0678350D01*
X0319753Y0678421D01*
X0319683Y0678494D01*
X0319616Y0678570D01*
X0319552Y0678649D01*
X0319491Y0678730D01*
X0319433Y0678813D01*
X0319379Y0678899D01*
X0319327Y0678987D01*
X0319280Y0679076D01*
X0319236Y0679168D01*
X0319195Y0679261D01*
X0319159Y0679355D01*
X0319126Y0679451D01*
X0319096Y0679549D01*
X0319071Y0679647D01*
X0319049Y0679746D01*
X0319032Y0679846D01*
X0319018Y0679946D01*
X0319008Y0680047D01*
X0319002Y0680149D01*
X0319000Y0680250D01*
X0328993Y0680250D02*
X0328995Y0680352D01*
X0329001Y0680453D01*
X0329011Y0680555D01*
X0329025Y0680655D01*
X0329042Y0680755D01*
X0329064Y0680855D01*
X0329090Y0680953D01*
X0329119Y0681051D01*
X0329152Y0681147D01*
X0329189Y0681242D01*
X0329230Y0681335D01*
X0329274Y0681427D01*
X0329321Y0681517D01*
X0329373Y0681605D01*
X0329427Y0681690D01*
X0329485Y0681774D01*
X0329546Y0681855D01*
X0329610Y0681934D01*
X0329677Y0682011D01*
X0329748Y0682084D01*
X0329821Y0682155D01*
X0329896Y0682223D01*
X0329975Y0682288D01*
X0330055Y0682350D01*
X0330138Y0682409D01*
X0330224Y0682464D01*
X0330311Y0682516D01*
X0330401Y0682565D01*
X0330492Y0682610D01*
X0330585Y0682651D01*
X0330679Y0682689D01*
X0330775Y0682723D01*
X0330872Y0682753D01*
X0330970Y0682780D01*
X0331070Y0682802D01*
X0331170Y0682821D01*
X0331270Y0682836D01*
X0331371Y0682847D01*
X0331473Y0682854D01*
X0331575Y0682857D01*
X0331676Y0682856D01*
X0331778Y0682851D01*
X0331879Y0682842D01*
X0331980Y0682829D01*
X0332081Y0682812D01*
X0332180Y0682792D01*
X0332279Y0682767D01*
X0332377Y0682739D01*
X0332473Y0682706D01*
X0332568Y0682671D01*
X0332662Y0682631D01*
X0332754Y0682588D01*
X0332844Y0682541D01*
X0332933Y0682491D01*
X0333019Y0682437D01*
X0333103Y0682380D01*
X0333185Y0682320D01*
X0333265Y0682256D01*
X0333342Y0682190D01*
X0333416Y0682120D01*
X0333488Y0682048D01*
X0333557Y0681973D01*
X0333622Y0681895D01*
X0333685Y0681815D01*
X0333744Y0681733D01*
X0333801Y0681648D01*
X0333853Y0681561D01*
X0333903Y0681472D01*
X0333949Y0681381D01*
X0333991Y0681289D01*
X0334030Y0681195D01*
X0334065Y0681099D01*
X0334096Y0681002D01*
X0334124Y0680904D01*
X0334147Y0680805D01*
X0334167Y0680705D01*
X0334183Y0680605D01*
X0334195Y0680504D01*
X0334203Y0680403D01*
X0334207Y0680301D01*
X0334207Y0680199D01*
X0334203Y0680097D01*
X0334195Y0679996D01*
X0334183Y0679895D01*
X0334167Y0679795D01*
X0334147Y0679695D01*
X0334124Y0679596D01*
X0334096Y0679498D01*
X0334065Y0679401D01*
X0334030Y0679305D01*
X0333991Y0679211D01*
X0333949Y0679119D01*
X0333903Y0679028D01*
X0333853Y0678939D01*
X0333801Y0678852D01*
X0333744Y0678767D01*
X0333685Y0678685D01*
X0333622Y0678605D01*
X0333557Y0678527D01*
X0333488Y0678452D01*
X0333416Y0678380D01*
X0333342Y0678310D01*
X0333265Y0678244D01*
X0333185Y0678180D01*
X0333103Y0678120D01*
X0333019Y0678063D01*
X0332933Y0678009D01*
X0332844Y0677959D01*
X0332754Y0677912D01*
X0332662Y0677869D01*
X0332568Y0677829D01*
X0332473Y0677794D01*
X0332377Y0677761D01*
X0332279Y0677733D01*
X0332180Y0677708D01*
X0332081Y0677688D01*
X0331980Y0677671D01*
X0331879Y0677658D01*
X0331778Y0677649D01*
X0331676Y0677644D01*
X0331575Y0677643D01*
X0331473Y0677646D01*
X0331371Y0677653D01*
X0331270Y0677664D01*
X0331170Y0677679D01*
X0331070Y0677698D01*
X0330970Y0677720D01*
X0330872Y0677747D01*
X0330775Y0677777D01*
X0330679Y0677811D01*
X0330585Y0677849D01*
X0330492Y0677890D01*
X0330401Y0677935D01*
X0330311Y0677984D01*
X0330224Y0678036D01*
X0330138Y0678091D01*
X0330055Y0678150D01*
X0329975Y0678212D01*
X0329896Y0678277D01*
X0329821Y0678345D01*
X0329748Y0678416D01*
X0329677Y0678489D01*
X0329610Y0678566D01*
X0329546Y0678645D01*
X0329485Y0678726D01*
X0329427Y0678810D01*
X0329373Y0678895D01*
X0329321Y0678983D01*
X0329274Y0679073D01*
X0329230Y0679165D01*
X0329189Y0679258D01*
X0329152Y0679353D01*
X0329119Y0679449D01*
X0329090Y0679547D01*
X0329064Y0679645D01*
X0329042Y0679745D01*
X0329025Y0679845D01*
X0329011Y0679945D01*
X0329001Y0680047D01*
X0328995Y0680148D01*
X0328993Y0680250D01*
X0162093Y0704150D02*
X0162095Y0704252D01*
X0162101Y0704353D01*
X0162111Y0704455D01*
X0162125Y0704555D01*
X0162142Y0704655D01*
X0162164Y0704755D01*
X0162190Y0704853D01*
X0162219Y0704951D01*
X0162252Y0705047D01*
X0162289Y0705142D01*
X0162330Y0705235D01*
X0162374Y0705327D01*
X0162421Y0705417D01*
X0162473Y0705505D01*
X0162527Y0705590D01*
X0162585Y0705674D01*
X0162646Y0705755D01*
X0162710Y0705834D01*
X0162777Y0705911D01*
X0162848Y0705984D01*
X0162921Y0706055D01*
X0162996Y0706123D01*
X0163075Y0706188D01*
X0163155Y0706250D01*
X0163238Y0706309D01*
X0163324Y0706364D01*
X0163411Y0706416D01*
X0163501Y0706465D01*
X0163592Y0706510D01*
X0163685Y0706551D01*
X0163779Y0706589D01*
X0163875Y0706623D01*
X0163972Y0706653D01*
X0164070Y0706680D01*
X0164170Y0706702D01*
X0164270Y0706721D01*
X0164370Y0706736D01*
X0164471Y0706747D01*
X0164573Y0706754D01*
X0164675Y0706757D01*
X0164776Y0706756D01*
X0164878Y0706751D01*
X0164979Y0706742D01*
X0165080Y0706729D01*
X0165181Y0706712D01*
X0165280Y0706692D01*
X0165379Y0706667D01*
X0165477Y0706639D01*
X0165573Y0706606D01*
X0165668Y0706571D01*
X0165762Y0706531D01*
X0165854Y0706488D01*
X0165944Y0706441D01*
X0166033Y0706391D01*
X0166119Y0706337D01*
X0166203Y0706280D01*
X0166285Y0706220D01*
X0166365Y0706156D01*
X0166442Y0706090D01*
X0166516Y0706020D01*
X0166588Y0705948D01*
X0166657Y0705873D01*
X0166722Y0705795D01*
X0166785Y0705715D01*
X0166844Y0705633D01*
X0166901Y0705548D01*
X0166953Y0705461D01*
X0167003Y0705372D01*
X0167049Y0705281D01*
X0167091Y0705189D01*
X0167130Y0705095D01*
X0167165Y0704999D01*
X0167196Y0704902D01*
X0167224Y0704804D01*
X0167247Y0704705D01*
X0167267Y0704605D01*
X0167283Y0704505D01*
X0167295Y0704404D01*
X0167303Y0704303D01*
X0167307Y0704201D01*
X0167307Y0704099D01*
X0167303Y0703997D01*
X0167295Y0703896D01*
X0167283Y0703795D01*
X0167267Y0703695D01*
X0167247Y0703595D01*
X0167224Y0703496D01*
X0167196Y0703398D01*
X0167165Y0703301D01*
X0167130Y0703205D01*
X0167091Y0703111D01*
X0167049Y0703019D01*
X0167003Y0702928D01*
X0166953Y0702839D01*
X0166901Y0702752D01*
X0166844Y0702667D01*
X0166785Y0702585D01*
X0166722Y0702505D01*
X0166657Y0702427D01*
X0166588Y0702352D01*
X0166516Y0702280D01*
X0166442Y0702210D01*
X0166365Y0702144D01*
X0166285Y0702080D01*
X0166203Y0702020D01*
X0166119Y0701963D01*
X0166033Y0701909D01*
X0165944Y0701859D01*
X0165854Y0701812D01*
X0165762Y0701769D01*
X0165668Y0701729D01*
X0165573Y0701694D01*
X0165477Y0701661D01*
X0165379Y0701633D01*
X0165280Y0701608D01*
X0165181Y0701588D01*
X0165080Y0701571D01*
X0164979Y0701558D01*
X0164878Y0701549D01*
X0164776Y0701544D01*
X0164675Y0701543D01*
X0164573Y0701546D01*
X0164471Y0701553D01*
X0164370Y0701564D01*
X0164270Y0701579D01*
X0164170Y0701598D01*
X0164070Y0701620D01*
X0163972Y0701647D01*
X0163875Y0701677D01*
X0163779Y0701711D01*
X0163685Y0701749D01*
X0163592Y0701790D01*
X0163501Y0701835D01*
X0163411Y0701884D01*
X0163324Y0701936D01*
X0163238Y0701991D01*
X0163155Y0702050D01*
X0163075Y0702112D01*
X0162996Y0702177D01*
X0162921Y0702245D01*
X0162848Y0702316D01*
X0162777Y0702389D01*
X0162710Y0702466D01*
X0162646Y0702545D01*
X0162585Y0702626D01*
X0162527Y0702710D01*
X0162473Y0702795D01*
X0162421Y0702883D01*
X0162374Y0702973D01*
X0162330Y0703065D01*
X0162289Y0703158D01*
X0162252Y0703253D01*
X0162219Y0703349D01*
X0162190Y0703447D01*
X0162164Y0703545D01*
X0162142Y0703645D01*
X0162125Y0703745D01*
X0162111Y0703845D01*
X0162101Y0703947D01*
X0162095Y0704048D01*
X0162093Y0704150D01*
X0152100Y0704150D02*
X0152102Y0704251D01*
X0152108Y0704353D01*
X0152118Y0704454D01*
X0152132Y0704554D01*
X0152149Y0704654D01*
X0152171Y0704753D01*
X0152196Y0704851D01*
X0152226Y0704949D01*
X0152259Y0705045D01*
X0152295Y0705139D01*
X0152336Y0705232D01*
X0152380Y0705324D01*
X0152427Y0705413D01*
X0152479Y0705501D01*
X0152533Y0705587D01*
X0152591Y0705670D01*
X0152652Y0705751D01*
X0152716Y0705830D01*
X0152783Y0705906D01*
X0152853Y0705979D01*
X0152925Y0706050D01*
X0153001Y0706118D01*
X0153079Y0706183D01*
X0153159Y0706244D01*
X0153242Y0706303D01*
X0153327Y0706358D01*
X0153415Y0706410D01*
X0153504Y0706459D01*
X0153595Y0706503D01*
X0153687Y0706545D01*
X0153782Y0706582D01*
X0153877Y0706616D01*
X0153974Y0706647D01*
X0154072Y0706673D01*
X0154171Y0706696D01*
X0154271Y0706714D01*
X0154371Y0706729D01*
X0154472Y0706740D01*
X0154573Y0706747D01*
X0154675Y0706750D01*
X0154776Y0706749D01*
X0154877Y0706744D01*
X0154979Y0706735D01*
X0155079Y0706722D01*
X0155179Y0706705D01*
X0155279Y0706685D01*
X0155377Y0706660D01*
X0155474Y0706632D01*
X0155571Y0706600D01*
X0155666Y0706564D01*
X0155759Y0706525D01*
X0155851Y0706481D01*
X0155941Y0706435D01*
X0156029Y0706385D01*
X0156115Y0706331D01*
X0156199Y0706274D01*
X0156281Y0706214D01*
X0156360Y0706151D01*
X0156437Y0706084D01*
X0156511Y0706015D01*
X0156583Y0705943D01*
X0156651Y0705868D01*
X0156717Y0705791D01*
X0156779Y0705711D01*
X0156839Y0705629D01*
X0156895Y0705544D01*
X0156947Y0705457D01*
X0156997Y0705369D01*
X0157043Y0705278D01*
X0157085Y0705186D01*
X0157123Y0705092D01*
X0157158Y0704997D01*
X0157189Y0704900D01*
X0157217Y0704802D01*
X0157240Y0704704D01*
X0157260Y0704604D01*
X0157276Y0704504D01*
X0157288Y0704403D01*
X0157296Y0704302D01*
X0157300Y0704201D01*
X0157300Y0704099D01*
X0157296Y0703998D01*
X0157288Y0703897D01*
X0157276Y0703796D01*
X0157260Y0703696D01*
X0157240Y0703596D01*
X0157217Y0703498D01*
X0157189Y0703400D01*
X0157158Y0703303D01*
X0157123Y0703208D01*
X0157085Y0703114D01*
X0157043Y0703022D01*
X0156997Y0702931D01*
X0156947Y0702843D01*
X0156895Y0702756D01*
X0156839Y0702671D01*
X0156779Y0702589D01*
X0156717Y0702509D01*
X0156651Y0702432D01*
X0156583Y0702357D01*
X0156511Y0702285D01*
X0156437Y0702216D01*
X0156360Y0702149D01*
X0156281Y0702086D01*
X0156199Y0702026D01*
X0156115Y0701969D01*
X0156029Y0701915D01*
X0155941Y0701865D01*
X0155851Y0701819D01*
X0155759Y0701775D01*
X0155666Y0701736D01*
X0155571Y0701700D01*
X0155474Y0701668D01*
X0155377Y0701640D01*
X0155279Y0701615D01*
X0155179Y0701595D01*
X0155079Y0701578D01*
X0154979Y0701565D01*
X0154877Y0701556D01*
X0154776Y0701551D01*
X0154675Y0701550D01*
X0154573Y0701553D01*
X0154472Y0701560D01*
X0154371Y0701571D01*
X0154271Y0701586D01*
X0154171Y0701604D01*
X0154072Y0701627D01*
X0153974Y0701653D01*
X0153877Y0701684D01*
X0153782Y0701718D01*
X0153687Y0701755D01*
X0153595Y0701797D01*
X0153504Y0701841D01*
X0153415Y0701890D01*
X0153327Y0701942D01*
X0153242Y0701997D01*
X0153159Y0702056D01*
X0153079Y0702117D01*
X0153001Y0702182D01*
X0152925Y0702250D01*
X0152853Y0702321D01*
X0152783Y0702394D01*
X0152716Y0702470D01*
X0152652Y0702549D01*
X0152591Y0702630D01*
X0152533Y0702713D01*
X0152479Y0702799D01*
X0152427Y0702887D01*
X0152380Y0702976D01*
X0152336Y0703068D01*
X0152295Y0703161D01*
X0152259Y0703255D01*
X0152226Y0703351D01*
X0152196Y0703449D01*
X0152171Y0703547D01*
X0152149Y0703646D01*
X0152132Y0703746D01*
X0152118Y0703846D01*
X0152108Y0703947D01*
X0152102Y0704049D01*
X0152100Y0704150D01*
X0152100Y0714150D02*
X0152102Y0714251D01*
X0152108Y0714353D01*
X0152118Y0714454D01*
X0152132Y0714554D01*
X0152149Y0714654D01*
X0152171Y0714753D01*
X0152196Y0714851D01*
X0152226Y0714949D01*
X0152259Y0715045D01*
X0152295Y0715139D01*
X0152336Y0715232D01*
X0152380Y0715324D01*
X0152427Y0715413D01*
X0152479Y0715501D01*
X0152533Y0715587D01*
X0152591Y0715670D01*
X0152652Y0715751D01*
X0152716Y0715830D01*
X0152783Y0715906D01*
X0152853Y0715979D01*
X0152925Y0716050D01*
X0153001Y0716118D01*
X0153079Y0716183D01*
X0153159Y0716244D01*
X0153242Y0716303D01*
X0153327Y0716358D01*
X0153415Y0716410D01*
X0153504Y0716459D01*
X0153595Y0716503D01*
X0153687Y0716545D01*
X0153782Y0716582D01*
X0153877Y0716616D01*
X0153974Y0716647D01*
X0154072Y0716673D01*
X0154171Y0716696D01*
X0154271Y0716714D01*
X0154371Y0716729D01*
X0154472Y0716740D01*
X0154573Y0716747D01*
X0154675Y0716750D01*
X0154776Y0716749D01*
X0154877Y0716744D01*
X0154979Y0716735D01*
X0155079Y0716722D01*
X0155179Y0716705D01*
X0155279Y0716685D01*
X0155377Y0716660D01*
X0155474Y0716632D01*
X0155571Y0716600D01*
X0155666Y0716564D01*
X0155759Y0716525D01*
X0155851Y0716481D01*
X0155941Y0716435D01*
X0156029Y0716385D01*
X0156115Y0716331D01*
X0156199Y0716274D01*
X0156281Y0716214D01*
X0156360Y0716151D01*
X0156437Y0716084D01*
X0156511Y0716015D01*
X0156583Y0715943D01*
X0156651Y0715868D01*
X0156717Y0715791D01*
X0156779Y0715711D01*
X0156839Y0715629D01*
X0156895Y0715544D01*
X0156947Y0715457D01*
X0156997Y0715369D01*
X0157043Y0715278D01*
X0157085Y0715186D01*
X0157123Y0715092D01*
X0157158Y0714997D01*
X0157189Y0714900D01*
X0157217Y0714802D01*
X0157240Y0714704D01*
X0157260Y0714604D01*
X0157276Y0714504D01*
X0157288Y0714403D01*
X0157296Y0714302D01*
X0157300Y0714201D01*
X0157300Y0714099D01*
X0157296Y0713998D01*
X0157288Y0713897D01*
X0157276Y0713796D01*
X0157260Y0713696D01*
X0157240Y0713596D01*
X0157217Y0713498D01*
X0157189Y0713400D01*
X0157158Y0713303D01*
X0157123Y0713208D01*
X0157085Y0713114D01*
X0157043Y0713022D01*
X0156997Y0712931D01*
X0156947Y0712843D01*
X0156895Y0712756D01*
X0156839Y0712671D01*
X0156779Y0712589D01*
X0156717Y0712509D01*
X0156651Y0712432D01*
X0156583Y0712357D01*
X0156511Y0712285D01*
X0156437Y0712216D01*
X0156360Y0712149D01*
X0156281Y0712086D01*
X0156199Y0712026D01*
X0156115Y0711969D01*
X0156029Y0711915D01*
X0155941Y0711865D01*
X0155851Y0711819D01*
X0155759Y0711775D01*
X0155666Y0711736D01*
X0155571Y0711700D01*
X0155474Y0711668D01*
X0155377Y0711640D01*
X0155279Y0711615D01*
X0155179Y0711595D01*
X0155079Y0711578D01*
X0154979Y0711565D01*
X0154877Y0711556D01*
X0154776Y0711551D01*
X0154675Y0711550D01*
X0154573Y0711553D01*
X0154472Y0711560D01*
X0154371Y0711571D01*
X0154271Y0711586D01*
X0154171Y0711604D01*
X0154072Y0711627D01*
X0153974Y0711653D01*
X0153877Y0711684D01*
X0153782Y0711718D01*
X0153687Y0711755D01*
X0153595Y0711797D01*
X0153504Y0711841D01*
X0153415Y0711890D01*
X0153327Y0711942D01*
X0153242Y0711997D01*
X0153159Y0712056D01*
X0153079Y0712117D01*
X0153001Y0712182D01*
X0152925Y0712250D01*
X0152853Y0712321D01*
X0152783Y0712394D01*
X0152716Y0712470D01*
X0152652Y0712549D01*
X0152591Y0712630D01*
X0152533Y0712713D01*
X0152479Y0712799D01*
X0152427Y0712887D01*
X0152380Y0712976D01*
X0152336Y0713068D01*
X0152295Y0713161D01*
X0152259Y0713255D01*
X0152226Y0713351D01*
X0152196Y0713449D01*
X0152171Y0713547D01*
X0152149Y0713646D01*
X0152132Y0713746D01*
X0152118Y0713846D01*
X0152108Y0713947D01*
X0152102Y0714049D01*
X0152100Y0714150D01*
X0162093Y0714150D02*
X0162095Y0714252D01*
X0162101Y0714353D01*
X0162111Y0714455D01*
X0162125Y0714555D01*
X0162142Y0714655D01*
X0162164Y0714755D01*
X0162190Y0714853D01*
X0162219Y0714951D01*
X0162252Y0715047D01*
X0162289Y0715142D01*
X0162330Y0715235D01*
X0162374Y0715327D01*
X0162421Y0715417D01*
X0162473Y0715505D01*
X0162527Y0715590D01*
X0162585Y0715674D01*
X0162646Y0715755D01*
X0162710Y0715834D01*
X0162777Y0715911D01*
X0162848Y0715984D01*
X0162921Y0716055D01*
X0162996Y0716123D01*
X0163075Y0716188D01*
X0163155Y0716250D01*
X0163238Y0716309D01*
X0163324Y0716364D01*
X0163411Y0716416D01*
X0163501Y0716465D01*
X0163592Y0716510D01*
X0163685Y0716551D01*
X0163779Y0716589D01*
X0163875Y0716623D01*
X0163972Y0716653D01*
X0164070Y0716680D01*
X0164170Y0716702D01*
X0164270Y0716721D01*
X0164370Y0716736D01*
X0164471Y0716747D01*
X0164573Y0716754D01*
X0164675Y0716757D01*
X0164776Y0716756D01*
X0164878Y0716751D01*
X0164979Y0716742D01*
X0165080Y0716729D01*
X0165181Y0716712D01*
X0165280Y0716692D01*
X0165379Y0716667D01*
X0165477Y0716639D01*
X0165573Y0716606D01*
X0165668Y0716571D01*
X0165762Y0716531D01*
X0165854Y0716488D01*
X0165944Y0716441D01*
X0166033Y0716391D01*
X0166119Y0716337D01*
X0166203Y0716280D01*
X0166285Y0716220D01*
X0166365Y0716156D01*
X0166442Y0716090D01*
X0166516Y0716020D01*
X0166588Y0715948D01*
X0166657Y0715873D01*
X0166722Y0715795D01*
X0166785Y0715715D01*
X0166844Y0715633D01*
X0166901Y0715548D01*
X0166953Y0715461D01*
X0167003Y0715372D01*
X0167049Y0715281D01*
X0167091Y0715189D01*
X0167130Y0715095D01*
X0167165Y0714999D01*
X0167196Y0714902D01*
X0167224Y0714804D01*
X0167247Y0714705D01*
X0167267Y0714605D01*
X0167283Y0714505D01*
X0167295Y0714404D01*
X0167303Y0714303D01*
X0167307Y0714201D01*
X0167307Y0714099D01*
X0167303Y0713997D01*
X0167295Y0713896D01*
X0167283Y0713795D01*
X0167267Y0713695D01*
X0167247Y0713595D01*
X0167224Y0713496D01*
X0167196Y0713398D01*
X0167165Y0713301D01*
X0167130Y0713205D01*
X0167091Y0713111D01*
X0167049Y0713019D01*
X0167003Y0712928D01*
X0166953Y0712839D01*
X0166901Y0712752D01*
X0166844Y0712667D01*
X0166785Y0712585D01*
X0166722Y0712505D01*
X0166657Y0712427D01*
X0166588Y0712352D01*
X0166516Y0712280D01*
X0166442Y0712210D01*
X0166365Y0712144D01*
X0166285Y0712080D01*
X0166203Y0712020D01*
X0166119Y0711963D01*
X0166033Y0711909D01*
X0165944Y0711859D01*
X0165854Y0711812D01*
X0165762Y0711769D01*
X0165668Y0711729D01*
X0165573Y0711694D01*
X0165477Y0711661D01*
X0165379Y0711633D01*
X0165280Y0711608D01*
X0165181Y0711588D01*
X0165080Y0711571D01*
X0164979Y0711558D01*
X0164878Y0711549D01*
X0164776Y0711544D01*
X0164675Y0711543D01*
X0164573Y0711546D01*
X0164471Y0711553D01*
X0164370Y0711564D01*
X0164270Y0711579D01*
X0164170Y0711598D01*
X0164070Y0711620D01*
X0163972Y0711647D01*
X0163875Y0711677D01*
X0163779Y0711711D01*
X0163685Y0711749D01*
X0163592Y0711790D01*
X0163501Y0711835D01*
X0163411Y0711884D01*
X0163324Y0711936D01*
X0163238Y0711991D01*
X0163155Y0712050D01*
X0163075Y0712112D01*
X0162996Y0712177D01*
X0162921Y0712245D01*
X0162848Y0712316D01*
X0162777Y0712389D01*
X0162710Y0712466D01*
X0162646Y0712545D01*
X0162585Y0712626D01*
X0162527Y0712710D01*
X0162473Y0712795D01*
X0162421Y0712883D01*
X0162374Y0712973D01*
X0162330Y0713065D01*
X0162289Y0713158D01*
X0162252Y0713253D01*
X0162219Y0713349D01*
X0162190Y0713447D01*
X0162164Y0713545D01*
X0162142Y0713645D01*
X0162125Y0713745D01*
X0162111Y0713845D01*
X0162101Y0713947D01*
X0162095Y0714048D01*
X0162093Y0714150D01*
X0699200Y0663750D02*
X0699202Y0663851D01*
X0699208Y0663953D01*
X0699218Y0664054D01*
X0699232Y0664154D01*
X0699249Y0664254D01*
X0699271Y0664353D01*
X0699296Y0664451D01*
X0699326Y0664549D01*
X0699359Y0664645D01*
X0699395Y0664739D01*
X0699436Y0664832D01*
X0699480Y0664924D01*
X0699527Y0665013D01*
X0699579Y0665101D01*
X0699633Y0665187D01*
X0699691Y0665270D01*
X0699752Y0665351D01*
X0699816Y0665430D01*
X0699883Y0665506D01*
X0699953Y0665579D01*
X0700025Y0665650D01*
X0700101Y0665718D01*
X0700179Y0665783D01*
X0700259Y0665844D01*
X0700342Y0665903D01*
X0700427Y0665958D01*
X0700515Y0666010D01*
X0700604Y0666059D01*
X0700695Y0666103D01*
X0700787Y0666145D01*
X0700882Y0666182D01*
X0700977Y0666216D01*
X0701074Y0666247D01*
X0701172Y0666273D01*
X0701271Y0666296D01*
X0701371Y0666314D01*
X0701471Y0666329D01*
X0701572Y0666340D01*
X0701673Y0666347D01*
X0701775Y0666350D01*
X0701876Y0666349D01*
X0701977Y0666344D01*
X0702079Y0666335D01*
X0702179Y0666322D01*
X0702279Y0666305D01*
X0702379Y0666285D01*
X0702477Y0666260D01*
X0702574Y0666232D01*
X0702671Y0666200D01*
X0702766Y0666164D01*
X0702859Y0666125D01*
X0702951Y0666081D01*
X0703041Y0666035D01*
X0703129Y0665985D01*
X0703215Y0665931D01*
X0703299Y0665874D01*
X0703381Y0665814D01*
X0703460Y0665751D01*
X0703537Y0665684D01*
X0703611Y0665615D01*
X0703683Y0665543D01*
X0703751Y0665468D01*
X0703817Y0665391D01*
X0703879Y0665311D01*
X0703939Y0665229D01*
X0703995Y0665144D01*
X0704047Y0665057D01*
X0704097Y0664969D01*
X0704143Y0664878D01*
X0704185Y0664786D01*
X0704223Y0664692D01*
X0704258Y0664597D01*
X0704289Y0664500D01*
X0704317Y0664402D01*
X0704340Y0664304D01*
X0704360Y0664204D01*
X0704376Y0664104D01*
X0704388Y0664003D01*
X0704396Y0663902D01*
X0704400Y0663801D01*
X0704400Y0663699D01*
X0704396Y0663598D01*
X0704388Y0663497D01*
X0704376Y0663396D01*
X0704360Y0663296D01*
X0704340Y0663196D01*
X0704317Y0663098D01*
X0704289Y0663000D01*
X0704258Y0662903D01*
X0704223Y0662808D01*
X0704185Y0662714D01*
X0704143Y0662622D01*
X0704097Y0662531D01*
X0704047Y0662443D01*
X0703995Y0662356D01*
X0703939Y0662271D01*
X0703879Y0662189D01*
X0703817Y0662109D01*
X0703751Y0662032D01*
X0703683Y0661957D01*
X0703611Y0661885D01*
X0703537Y0661816D01*
X0703460Y0661749D01*
X0703381Y0661686D01*
X0703299Y0661626D01*
X0703215Y0661569D01*
X0703129Y0661515D01*
X0703041Y0661465D01*
X0702951Y0661419D01*
X0702859Y0661375D01*
X0702766Y0661336D01*
X0702671Y0661300D01*
X0702574Y0661268D01*
X0702477Y0661240D01*
X0702379Y0661215D01*
X0702279Y0661195D01*
X0702179Y0661178D01*
X0702079Y0661165D01*
X0701977Y0661156D01*
X0701876Y0661151D01*
X0701775Y0661150D01*
X0701673Y0661153D01*
X0701572Y0661160D01*
X0701471Y0661171D01*
X0701371Y0661186D01*
X0701271Y0661204D01*
X0701172Y0661227D01*
X0701074Y0661253D01*
X0700977Y0661284D01*
X0700882Y0661318D01*
X0700787Y0661355D01*
X0700695Y0661397D01*
X0700604Y0661441D01*
X0700515Y0661490D01*
X0700427Y0661542D01*
X0700342Y0661597D01*
X0700259Y0661656D01*
X0700179Y0661717D01*
X0700101Y0661782D01*
X0700025Y0661850D01*
X0699953Y0661921D01*
X0699883Y0661994D01*
X0699816Y0662070D01*
X0699752Y0662149D01*
X0699691Y0662230D01*
X0699633Y0662313D01*
X0699579Y0662399D01*
X0699527Y0662487D01*
X0699480Y0662576D01*
X0699436Y0662668D01*
X0699395Y0662761D01*
X0699359Y0662855D01*
X0699326Y0662951D01*
X0699296Y0663049D01*
X0699271Y0663147D01*
X0699249Y0663246D01*
X0699232Y0663346D01*
X0699218Y0663446D01*
X0699208Y0663547D01*
X0699202Y0663649D01*
X0699200Y0663750D01*
X0709193Y0663750D02*
X0709195Y0663852D01*
X0709201Y0663953D01*
X0709211Y0664055D01*
X0709225Y0664155D01*
X0709242Y0664255D01*
X0709264Y0664355D01*
X0709290Y0664453D01*
X0709319Y0664551D01*
X0709352Y0664647D01*
X0709389Y0664742D01*
X0709430Y0664835D01*
X0709474Y0664927D01*
X0709521Y0665017D01*
X0709573Y0665105D01*
X0709627Y0665190D01*
X0709685Y0665274D01*
X0709746Y0665355D01*
X0709810Y0665434D01*
X0709877Y0665511D01*
X0709948Y0665584D01*
X0710021Y0665655D01*
X0710096Y0665723D01*
X0710175Y0665788D01*
X0710255Y0665850D01*
X0710338Y0665909D01*
X0710424Y0665964D01*
X0710511Y0666016D01*
X0710601Y0666065D01*
X0710692Y0666110D01*
X0710785Y0666151D01*
X0710879Y0666189D01*
X0710975Y0666223D01*
X0711072Y0666253D01*
X0711170Y0666280D01*
X0711270Y0666302D01*
X0711370Y0666321D01*
X0711470Y0666336D01*
X0711571Y0666347D01*
X0711673Y0666354D01*
X0711775Y0666357D01*
X0711876Y0666356D01*
X0711978Y0666351D01*
X0712079Y0666342D01*
X0712180Y0666329D01*
X0712281Y0666312D01*
X0712380Y0666292D01*
X0712479Y0666267D01*
X0712577Y0666239D01*
X0712673Y0666206D01*
X0712768Y0666171D01*
X0712862Y0666131D01*
X0712954Y0666088D01*
X0713044Y0666041D01*
X0713133Y0665991D01*
X0713219Y0665937D01*
X0713303Y0665880D01*
X0713385Y0665820D01*
X0713465Y0665756D01*
X0713542Y0665690D01*
X0713616Y0665620D01*
X0713688Y0665548D01*
X0713757Y0665473D01*
X0713822Y0665395D01*
X0713885Y0665315D01*
X0713944Y0665233D01*
X0714001Y0665148D01*
X0714053Y0665061D01*
X0714103Y0664972D01*
X0714149Y0664881D01*
X0714191Y0664789D01*
X0714230Y0664695D01*
X0714265Y0664599D01*
X0714296Y0664502D01*
X0714324Y0664404D01*
X0714347Y0664305D01*
X0714367Y0664205D01*
X0714383Y0664105D01*
X0714395Y0664004D01*
X0714403Y0663903D01*
X0714407Y0663801D01*
X0714407Y0663699D01*
X0714403Y0663597D01*
X0714395Y0663496D01*
X0714383Y0663395D01*
X0714367Y0663295D01*
X0714347Y0663195D01*
X0714324Y0663096D01*
X0714296Y0662998D01*
X0714265Y0662901D01*
X0714230Y0662805D01*
X0714191Y0662711D01*
X0714149Y0662619D01*
X0714103Y0662528D01*
X0714053Y0662439D01*
X0714001Y0662352D01*
X0713944Y0662267D01*
X0713885Y0662185D01*
X0713822Y0662105D01*
X0713757Y0662027D01*
X0713688Y0661952D01*
X0713616Y0661880D01*
X0713542Y0661810D01*
X0713465Y0661744D01*
X0713385Y0661680D01*
X0713303Y0661620D01*
X0713219Y0661563D01*
X0713133Y0661509D01*
X0713044Y0661459D01*
X0712954Y0661412D01*
X0712862Y0661369D01*
X0712768Y0661329D01*
X0712673Y0661294D01*
X0712577Y0661261D01*
X0712479Y0661233D01*
X0712380Y0661208D01*
X0712281Y0661188D01*
X0712180Y0661171D01*
X0712079Y0661158D01*
X0711978Y0661149D01*
X0711876Y0661144D01*
X0711775Y0661143D01*
X0711673Y0661146D01*
X0711571Y0661153D01*
X0711470Y0661164D01*
X0711370Y0661179D01*
X0711270Y0661198D01*
X0711170Y0661220D01*
X0711072Y0661247D01*
X0710975Y0661277D01*
X0710879Y0661311D01*
X0710785Y0661349D01*
X0710692Y0661390D01*
X0710601Y0661435D01*
X0710511Y0661484D01*
X0710424Y0661536D01*
X0710338Y0661591D01*
X0710255Y0661650D01*
X0710175Y0661712D01*
X0710096Y0661777D01*
X0710021Y0661845D01*
X0709948Y0661916D01*
X0709877Y0661989D01*
X0709810Y0662066D01*
X0709746Y0662145D01*
X0709685Y0662226D01*
X0709627Y0662310D01*
X0709573Y0662395D01*
X0709521Y0662483D01*
X0709474Y0662573D01*
X0709430Y0662665D01*
X0709389Y0662758D01*
X0709352Y0662853D01*
X0709319Y0662949D01*
X0709290Y0663047D01*
X0709264Y0663145D01*
X0709242Y0663245D01*
X0709225Y0663345D01*
X0709211Y0663445D01*
X0709201Y0663547D01*
X0709195Y0663648D01*
X0709193Y0663750D01*
X0709193Y0653750D02*
X0709195Y0653852D01*
X0709201Y0653953D01*
X0709211Y0654055D01*
X0709225Y0654155D01*
X0709242Y0654255D01*
X0709264Y0654355D01*
X0709290Y0654453D01*
X0709319Y0654551D01*
X0709352Y0654647D01*
X0709389Y0654742D01*
X0709430Y0654835D01*
X0709474Y0654927D01*
X0709521Y0655017D01*
X0709573Y0655105D01*
X0709627Y0655190D01*
X0709685Y0655274D01*
X0709746Y0655355D01*
X0709810Y0655434D01*
X0709877Y0655511D01*
X0709948Y0655584D01*
X0710021Y0655655D01*
X0710096Y0655723D01*
X0710175Y0655788D01*
X0710255Y0655850D01*
X0710338Y0655909D01*
X0710424Y0655964D01*
X0710511Y0656016D01*
X0710601Y0656065D01*
X0710692Y0656110D01*
X0710785Y0656151D01*
X0710879Y0656189D01*
X0710975Y0656223D01*
X0711072Y0656253D01*
X0711170Y0656280D01*
X0711270Y0656302D01*
X0711370Y0656321D01*
X0711470Y0656336D01*
X0711571Y0656347D01*
X0711673Y0656354D01*
X0711775Y0656357D01*
X0711876Y0656356D01*
X0711978Y0656351D01*
X0712079Y0656342D01*
X0712180Y0656329D01*
X0712281Y0656312D01*
X0712380Y0656292D01*
X0712479Y0656267D01*
X0712577Y0656239D01*
X0712673Y0656206D01*
X0712768Y0656171D01*
X0712862Y0656131D01*
X0712954Y0656088D01*
X0713044Y0656041D01*
X0713133Y0655991D01*
X0713219Y0655937D01*
X0713303Y0655880D01*
X0713385Y0655820D01*
X0713465Y0655756D01*
X0713542Y0655690D01*
X0713616Y0655620D01*
X0713688Y0655548D01*
X0713757Y0655473D01*
X0713822Y0655395D01*
X0713885Y0655315D01*
X0713944Y0655233D01*
X0714001Y0655148D01*
X0714053Y0655061D01*
X0714103Y0654972D01*
X0714149Y0654881D01*
X0714191Y0654789D01*
X0714230Y0654695D01*
X0714265Y0654599D01*
X0714296Y0654502D01*
X0714324Y0654404D01*
X0714347Y0654305D01*
X0714367Y0654205D01*
X0714383Y0654105D01*
X0714395Y0654004D01*
X0714403Y0653903D01*
X0714407Y0653801D01*
X0714407Y0653699D01*
X0714403Y0653597D01*
X0714395Y0653496D01*
X0714383Y0653395D01*
X0714367Y0653295D01*
X0714347Y0653195D01*
X0714324Y0653096D01*
X0714296Y0652998D01*
X0714265Y0652901D01*
X0714230Y0652805D01*
X0714191Y0652711D01*
X0714149Y0652619D01*
X0714103Y0652528D01*
X0714053Y0652439D01*
X0714001Y0652352D01*
X0713944Y0652267D01*
X0713885Y0652185D01*
X0713822Y0652105D01*
X0713757Y0652027D01*
X0713688Y0651952D01*
X0713616Y0651880D01*
X0713542Y0651810D01*
X0713465Y0651744D01*
X0713385Y0651680D01*
X0713303Y0651620D01*
X0713219Y0651563D01*
X0713133Y0651509D01*
X0713044Y0651459D01*
X0712954Y0651412D01*
X0712862Y0651369D01*
X0712768Y0651329D01*
X0712673Y0651294D01*
X0712577Y0651261D01*
X0712479Y0651233D01*
X0712380Y0651208D01*
X0712281Y0651188D01*
X0712180Y0651171D01*
X0712079Y0651158D01*
X0711978Y0651149D01*
X0711876Y0651144D01*
X0711775Y0651143D01*
X0711673Y0651146D01*
X0711571Y0651153D01*
X0711470Y0651164D01*
X0711370Y0651179D01*
X0711270Y0651198D01*
X0711170Y0651220D01*
X0711072Y0651247D01*
X0710975Y0651277D01*
X0710879Y0651311D01*
X0710785Y0651349D01*
X0710692Y0651390D01*
X0710601Y0651435D01*
X0710511Y0651484D01*
X0710424Y0651536D01*
X0710338Y0651591D01*
X0710255Y0651650D01*
X0710175Y0651712D01*
X0710096Y0651777D01*
X0710021Y0651845D01*
X0709948Y0651916D01*
X0709877Y0651989D01*
X0709810Y0652066D01*
X0709746Y0652145D01*
X0709685Y0652226D01*
X0709627Y0652310D01*
X0709573Y0652395D01*
X0709521Y0652483D01*
X0709474Y0652573D01*
X0709430Y0652665D01*
X0709389Y0652758D01*
X0709352Y0652853D01*
X0709319Y0652949D01*
X0709290Y0653047D01*
X0709264Y0653145D01*
X0709242Y0653245D01*
X0709225Y0653345D01*
X0709211Y0653445D01*
X0709201Y0653547D01*
X0709195Y0653648D01*
X0709193Y0653750D01*
X0699200Y0653750D02*
X0699202Y0653851D01*
X0699208Y0653953D01*
X0699218Y0654054D01*
X0699232Y0654154D01*
X0699249Y0654254D01*
X0699271Y0654353D01*
X0699296Y0654451D01*
X0699326Y0654549D01*
X0699359Y0654645D01*
X0699395Y0654739D01*
X0699436Y0654832D01*
X0699480Y0654924D01*
X0699527Y0655013D01*
X0699579Y0655101D01*
X0699633Y0655187D01*
X0699691Y0655270D01*
X0699752Y0655351D01*
X0699816Y0655430D01*
X0699883Y0655506D01*
X0699953Y0655579D01*
X0700025Y0655650D01*
X0700101Y0655718D01*
X0700179Y0655783D01*
X0700259Y0655844D01*
X0700342Y0655903D01*
X0700427Y0655958D01*
X0700515Y0656010D01*
X0700604Y0656059D01*
X0700695Y0656103D01*
X0700787Y0656145D01*
X0700882Y0656182D01*
X0700977Y0656216D01*
X0701074Y0656247D01*
X0701172Y0656273D01*
X0701271Y0656296D01*
X0701371Y0656314D01*
X0701471Y0656329D01*
X0701572Y0656340D01*
X0701673Y0656347D01*
X0701775Y0656350D01*
X0701876Y0656349D01*
X0701977Y0656344D01*
X0702079Y0656335D01*
X0702179Y0656322D01*
X0702279Y0656305D01*
X0702379Y0656285D01*
X0702477Y0656260D01*
X0702574Y0656232D01*
X0702671Y0656200D01*
X0702766Y0656164D01*
X0702859Y0656125D01*
X0702951Y0656081D01*
X0703041Y0656035D01*
X0703129Y0655985D01*
X0703215Y0655931D01*
X0703299Y0655874D01*
X0703381Y0655814D01*
X0703460Y0655751D01*
X0703537Y0655684D01*
X0703611Y0655615D01*
X0703683Y0655543D01*
X0703751Y0655468D01*
X0703817Y0655391D01*
X0703879Y0655311D01*
X0703939Y0655229D01*
X0703995Y0655144D01*
X0704047Y0655057D01*
X0704097Y0654969D01*
X0704143Y0654878D01*
X0704185Y0654786D01*
X0704223Y0654692D01*
X0704258Y0654597D01*
X0704289Y0654500D01*
X0704317Y0654402D01*
X0704340Y0654304D01*
X0704360Y0654204D01*
X0704376Y0654104D01*
X0704388Y0654003D01*
X0704396Y0653902D01*
X0704400Y0653801D01*
X0704400Y0653699D01*
X0704396Y0653598D01*
X0704388Y0653497D01*
X0704376Y0653396D01*
X0704360Y0653296D01*
X0704340Y0653196D01*
X0704317Y0653098D01*
X0704289Y0653000D01*
X0704258Y0652903D01*
X0704223Y0652808D01*
X0704185Y0652714D01*
X0704143Y0652622D01*
X0704097Y0652531D01*
X0704047Y0652443D01*
X0703995Y0652356D01*
X0703939Y0652271D01*
X0703879Y0652189D01*
X0703817Y0652109D01*
X0703751Y0652032D01*
X0703683Y0651957D01*
X0703611Y0651885D01*
X0703537Y0651816D01*
X0703460Y0651749D01*
X0703381Y0651686D01*
X0703299Y0651626D01*
X0703215Y0651569D01*
X0703129Y0651515D01*
X0703041Y0651465D01*
X0702951Y0651419D01*
X0702859Y0651375D01*
X0702766Y0651336D01*
X0702671Y0651300D01*
X0702574Y0651268D01*
X0702477Y0651240D01*
X0702379Y0651215D01*
X0702279Y0651195D01*
X0702179Y0651178D01*
X0702079Y0651165D01*
X0701977Y0651156D01*
X0701876Y0651151D01*
X0701775Y0651150D01*
X0701673Y0651153D01*
X0701572Y0651160D01*
X0701471Y0651171D01*
X0701371Y0651186D01*
X0701271Y0651204D01*
X0701172Y0651227D01*
X0701074Y0651253D01*
X0700977Y0651284D01*
X0700882Y0651318D01*
X0700787Y0651355D01*
X0700695Y0651397D01*
X0700604Y0651441D01*
X0700515Y0651490D01*
X0700427Y0651542D01*
X0700342Y0651597D01*
X0700259Y0651656D01*
X0700179Y0651717D01*
X0700101Y0651782D01*
X0700025Y0651850D01*
X0699953Y0651921D01*
X0699883Y0651994D01*
X0699816Y0652070D01*
X0699752Y0652149D01*
X0699691Y0652230D01*
X0699633Y0652313D01*
X0699579Y0652399D01*
X0699527Y0652487D01*
X0699480Y0652576D01*
X0699436Y0652668D01*
X0699395Y0652761D01*
X0699359Y0652855D01*
X0699326Y0652951D01*
X0699296Y0653049D01*
X0699271Y0653147D01*
X0699249Y0653246D01*
X0699232Y0653346D01*
X0699218Y0653446D01*
X0699208Y0653547D01*
X0699202Y0653649D01*
X0699200Y0653750D01*
X0768900Y0761750D02*
X0768902Y0761851D01*
X0768908Y0761953D01*
X0768918Y0762054D01*
X0768932Y0762154D01*
X0768949Y0762254D01*
X0768971Y0762353D01*
X0768996Y0762451D01*
X0769026Y0762549D01*
X0769059Y0762645D01*
X0769095Y0762739D01*
X0769136Y0762832D01*
X0769180Y0762924D01*
X0769227Y0763013D01*
X0769279Y0763101D01*
X0769333Y0763187D01*
X0769391Y0763270D01*
X0769452Y0763351D01*
X0769516Y0763430D01*
X0769583Y0763506D01*
X0769653Y0763579D01*
X0769725Y0763650D01*
X0769801Y0763718D01*
X0769879Y0763783D01*
X0769959Y0763844D01*
X0770042Y0763903D01*
X0770127Y0763958D01*
X0770215Y0764010D01*
X0770304Y0764059D01*
X0770395Y0764103D01*
X0770487Y0764145D01*
X0770582Y0764182D01*
X0770677Y0764216D01*
X0770774Y0764247D01*
X0770872Y0764273D01*
X0770971Y0764296D01*
X0771071Y0764314D01*
X0771171Y0764329D01*
X0771272Y0764340D01*
X0771373Y0764347D01*
X0771475Y0764350D01*
X0771576Y0764349D01*
X0771677Y0764344D01*
X0771779Y0764335D01*
X0771879Y0764322D01*
X0771979Y0764305D01*
X0772079Y0764285D01*
X0772177Y0764260D01*
X0772274Y0764232D01*
X0772371Y0764200D01*
X0772466Y0764164D01*
X0772559Y0764125D01*
X0772651Y0764081D01*
X0772741Y0764035D01*
X0772829Y0763985D01*
X0772915Y0763931D01*
X0772999Y0763874D01*
X0773081Y0763814D01*
X0773160Y0763751D01*
X0773237Y0763684D01*
X0773311Y0763615D01*
X0773383Y0763543D01*
X0773451Y0763468D01*
X0773517Y0763391D01*
X0773579Y0763311D01*
X0773639Y0763229D01*
X0773695Y0763144D01*
X0773747Y0763057D01*
X0773797Y0762969D01*
X0773843Y0762878D01*
X0773885Y0762786D01*
X0773923Y0762692D01*
X0773958Y0762597D01*
X0773989Y0762500D01*
X0774017Y0762402D01*
X0774040Y0762304D01*
X0774060Y0762204D01*
X0774076Y0762104D01*
X0774088Y0762003D01*
X0774096Y0761902D01*
X0774100Y0761801D01*
X0774100Y0761699D01*
X0774096Y0761598D01*
X0774088Y0761497D01*
X0774076Y0761396D01*
X0774060Y0761296D01*
X0774040Y0761196D01*
X0774017Y0761098D01*
X0773989Y0761000D01*
X0773958Y0760903D01*
X0773923Y0760808D01*
X0773885Y0760714D01*
X0773843Y0760622D01*
X0773797Y0760531D01*
X0773747Y0760443D01*
X0773695Y0760356D01*
X0773639Y0760271D01*
X0773579Y0760189D01*
X0773517Y0760109D01*
X0773451Y0760032D01*
X0773383Y0759957D01*
X0773311Y0759885D01*
X0773237Y0759816D01*
X0773160Y0759749D01*
X0773081Y0759686D01*
X0772999Y0759626D01*
X0772915Y0759569D01*
X0772829Y0759515D01*
X0772741Y0759465D01*
X0772651Y0759419D01*
X0772559Y0759375D01*
X0772466Y0759336D01*
X0772371Y0759300D01*
X0772274Y0759268D01*
X0772177Y0759240D01*
X0772079Y0759215D01*
X0771979Y0759195D01*
X0771879Y0759178D01*
X0771779Y0759165D01*
X0771677Y0759156D01*
X0771576Y0759151D01*
X0771475Y0759150D01*
X0771373Y0759153D01*
X0771272Y0759160D01*
X0771171Y0759171D01*
X0771071Y0759186D01*
X0770971Y0759204D01*
X0770872Y0759227D01*
X0770774Y0759253D01*
X0770677Y0759284D01*
X0770582Y0759318D01*
X0770487Y0759355D01*
X0770395Y0759397D01*
X0770304Y0759441D01*
X0770215Y0759490D01*
X0770127Y0759542D01*
X0770042Y0759597D01*
X0769959Y0759656D01*
X0769879Y0759717D01*
X0769801Y0759782D01*
X0769725Y0759850D01*
X0769653Y0759921D01*
X0769583Y0759994D01*
X0769516Y0760070D01*
X0769452Y0760149D01*
X0769391Y0760230D01*
X0769333Y0760313D01*
X0769279Y0760399D01*
X0769227Y0760487D01*
X0769180Y0760576D01*
X0769136Y0760668D01*
X0769095Y0760761D01*
X0769059Y0760855D01*
X0769026Y0760951D01*
X0768996Y0761049D01*
X0768971Y0761147D01*
X0768949Y0761246D01*
X0768932Y0761346D01*
X0768918Y0761446D01*
X0768908Y0761547D01*
X0768902Y0761649D01*
X0768900Y0761750D01*
X0768900Y0771750D02*
X0768902Y0771851D01*
X0768908Y0771953D01*
X0768918Y0772054D01*
X0768932Y0772154D01*
X0768949Y0772254D01*
X0768971Y0772353D01*
X0768996Y0772451D01*
X0769026Y0772549D01*
X0769059Y0772645D01*
X0769095Y0772739D01*
X0769136Y0772832D01*
X0769180Y0772924D01*
X0769227Y0773013D01*
X0769279Y0773101D01*
X0769333Y0773187D01*
X0769391Y0773270D01*
X0769452Y0773351D01*
X0769516Y0773430D01*
X0769583Y0773506D01*
X0769653Y0773579D01*
X0769725Y0773650D01*
X0769801Y0773718D01*
X0769879Y0773783D01*
X0769959Y0773844D01*
X0770042Y0773903D01*
X0770127Y0773958D01*
X0770215Y0774010D01*
X0770304Y0774059D01*
X0770395Y0774103D01*
X0770487Y0774145D01*
X0770582Y0774182D01*
X0770677Y0774216D01*
X0770774Y0774247D01*
X0770872Y0774273D01*
X0770971Y0774296D01*
X0771071Y0774314D01*
X0771171Y0774329D01*
X0771272Y0774340D01*
X0771373Y0774347D01*
X0771475Y0774350D01*
X0771576Y0774349D01*
X0771677Y0774344D01*
X0771779Y0774335D01*
X0771879Y0774322D01*
X0771979Y0774305D01*
X0772079Y0774285D01*
X0772177Y0774260D01*
X0772274Y0774232D01*
X0772371Y0774200D01*
X0772466Y0774164D01*
X0772559Y0774125D01*
X0772651Y0774081D01*
X0772741Y0774035D01*
X0772829Y0773985D01*
X0772915Y0773931D01*
X0772999Y0773874D01*
X0773081Y0773814D01*
X0773160Y0773751D01*
X0773237Y0773684D01*
X0773311Y0773615D01*
X0773383Y0773543D01*
X0773451Y0773468D01*
X0773517Y0773391D01*
X0773579Y0773311D01*
X0773639Y0773229D01*
X0773695Y0773144D01*
X0773747Y0773057D01*
X0773797Y0772969D01*
X0773843Y0772878D01*
X0773885Y0772786D01*
X0773923Y0772692D01*
X0773958Y0772597D01*
X0773989Y0772500D01*
X0774017Y0772402D01*
X0774040Y0772304D01*
X0774060Y0772204D01*
X0774076Y0772104D01*
X0774088Y0772003D01*
X0774096Y0771902D01*
X0774100Y0771801D01*
X0774100Y0771699D01*
X0774096Y0771598D01*
X0774088Y0771497D01*
X0774076Y0771396D01*
X0774060Y0771296D01*
X0774040Y0771196D01*
X0774017Y0771098D01*
X0773989Y0771000D01*
X0773958Y0770903D01*
X0773923Y0770808D01*
X0773885Y0770714D01*
X0773843Y0770622D01*
X0773797Y0770531D01*
X0773747Y0770443D01*
X0773695Y0770356D01*
X0773639Y0770271D01*
X0773579Y0770189D01*
X0773517Y0770109D01*
X0773451Y0770032D01*
X0773383Y0769957D01*
X0773311Y0769885D01*
X0773237Y0769816D01*
X0773160Y0769749D01*
X0773081Y0769686D01*
X0772999Y0769626D01*
X0772915Y0769569D01*
X0772829Y0769515D01*
X0772741Y0769465D01*
X0772651Y0769419D01*
X0772559Y0769375D01*
X0772466Y0769336D01*
X0772371Y0769300D01*
X0772274Y0769268D01*
X0772177Y0769240D01*
X0772079Y0769215D01*
X0771979Y0769195D01*
X0771879Y0769178D01*
X0771779Y0769165D01*
X0771677Y0769156D01*
X0771576Y0769151D01*
X0771475Y0769150D01*
X0771373Y0769153D01*
X0771272Y0769160D01*
X0771171Y0769171D01*
X0771071Y0769186D01*
X0770971Y0769204D01*
X0770872Y0769227D01*
X0770774Y0769253D01*
X0770677Y0769284D01*
X0770582Y0769318D01*
X0770487Y0769355D01*
X0770395Y0769397D01*
X0770304Y0769441D01*
X0770215Y0769490D01*
X0770127Y0769542D01*
X0770042Y0769597D01*
X0769959Y0769656D01*
X0769879Y0769717D01*
X0769801Y0769782D01*
X0769725Y0769850D01*
X0769653Y0769921D01*
X0769583Y0769994D01*
X0769516Y0770070D01*
X0769452Y0770149D01*
X0769391Y0770230D01*
X0769333Y0770313D01*
X0769279Y0770399D01*
X0769227Y0770487D01*
X0769180Y0770576D01*
X0769136Y0770668D01*
X0769095Y0770761D01*
X0769059Y0770855D01*
X0769026Y0770951D01*
X0768996Y0771049D01*
X0768971Y0771147D01*
X0768949Y0771246D01*
X0768932Y0771346D01*
X0768918Y0771446D01*
X0768908Y0771547D01*
X0768902Y0771649D01*
X0768900Y0771750D01*
X0778893Y0771750D02*
X0778895Y0771852D01*
X0778901Y0771953D01*
X0778911Y0772055D01*
X0778925Y0772155D01*
X0778942Y0772255D01*
X0778964Y0772355D01*
X0778990Y0772453D01*
X0779019Y0772551D01*
X0779052Y0772647D01*
X0779089Y0772742D01*
X0779130Y0772835D01*
X0779174Y0772927D01*
X0779221Y0773017D01*
X0779273Y0773105D01*
X0779327Y0773190D01*
X0779385Y0773274D01*
X0779446Y0773355D01*
X0779510Y0773434D01*
X0779577Y0773511D01*
X0779648Y0773584D01*
X0779721Y0773655D01*
X0779796Y0773723D01*
X0779875Y0773788D01*
X0779955Y0773850D01*
X0780038Y0773909D01*
X0780124Y0773964D01*
X0780211Y0774016D01*
X0780301Y0774065D01*
X0780392Y0774110D01*
X0780485Y0774151D01*
X0780579Y0774189D01*
X0780675Y0774223D01*
X0780772Y0774253D01*
X0780870Y0774280D01*
X0780970Y0774302D01*
X0781070Y0774321D01*
X0781170Y0774336D01*
X0781271Y0774347D01*
X0781373Y0774354D01*
X0781475Y0774357D01*
X0781576Y0774356D01*
X0781678Y0774351D01*
X0781779Y0774342D01*
X0781880Y0774329D01*
X0781981Y0774312D01*
X0782080Y0774292D01*
X0782179Y0774267D01*
X0782277Y0774239D01*
X0782373Y0774206D01*
X0782468Y0774171D01*
X0782562Y0774131D01*
X0782654Y0774088D01*
X0782744Y0774041D01*
X0782833Y0773991D01*
X0782919Y0773937D01*
X0783003Y0773880D01*
X0783085Y0773820D01*
X0783165Y0773756D01*
X0783242Y0773690D01*
X0783316Y0773620D01*
X0783388Y0773548D01*
X0783457Y0773473D01*
X0783522Y0773395D01*
X0783585Y0773315D01*
X0783644Y0773233D01*
X0783701Y0773148D01*
X0783753Y0773061D01*
X0783803Y0772972D01*
X0783849Y0772881D01*
X0783891Y0772789D01*
X0783930Y0772695D01*
X0783965Y0772599D01*
X0783996Y0772502D01*
X0784024Y0772404D01*
X0784047Y0772305D01*
X0784067Y0772205D01*
X0784083Y0772105D01*
X0784095Y0772004D01*
X0784103Y0771903D01*
X0784107Y0771801D01*
X0784107Y0771699D01*
X0784103Y0771597D01*
X0784095Y0771496D01*
X0784083Y0771395D01*
X0784067Y0771295D01*
X0784047Y0771195D01*
X0784024Y0771096D01*
X0783996Y0770998D01*
X0783965Y0770901D01*
X0783930Y0770805D01*
X0783891Y0770711D01*
X0783849Y0770619D01*
X0783803Y0770528D01*
X0783753Y0770439D01*
X0783701Y0770352D01*
X0783644Y0770267D01*
X0783585Y0770185D01*
X0783522Y0770105D01*
X0783457Y0770027D01*
X0783388Y0769952D01*
X0783316Y0769880D01*
X0783242Y0769810D01*
X0783165Y0769744D01*
X0783085Y0769680D01*
X0783003Y0769620D01*
X0782919Y0769563D01*
X0782833Y0769509D01*
X0782744Y0769459D01*
X0782654Y0769412D01*
X0782562Y0769369D01*
X0782468Y0769329D01*
X0782373Y0769294D01*
X0782277Y0769261D01*
X0782179Y0769233D01*
X0782080Y0769208D01*
X0781981Y0769188D01*
X0781880Y0769171D01*
X0781779Y0769158D01*
X0781678Y0769149D01*
X0781576Y0769144D01*
X0781475Y0769143D01*
X0781373Y0769146D01*
X0781271Y0769153D01*
X0781170Y0769164D01*
X0781070Y0769179D01*
X0780970Y0769198D01*
X0780870Y0769220D01*
X0780772Y0769247D01*
X0780675Y0769277D01*
X0780579Y0769311D01*
X0780485Y0769349D01*
X0780392Y0769390D01*
X0780301Y0769435D01*
X0780211Y0769484D01*
X0780124Y0769536D01*
X0780038Y0769591D01*
X0779955Y0769650D01*
X0779875Y0769712D01*
X0779796Y0769777D01*
X0779721Y0769845D01*
X0779648Y0769916D01*
X0779577Y0769989D01*
X0779510Y0770066D01*
X0779446Y0770145D01*
X0779385Y0770226D01*
X0779327Y0770310D01*
X0779273Y0770395D01*
X0779221Y0770483D01*
X0779174Y0770573D01*
X0779130Y0770665D01*
X0779089Y0770758D01*
X0779052Y0770853D01*
X0779019Y0770949D01*
X0778990Y0771047D01*
X0778964Y0771145D01*
X0778942Y0771245D01*
X0778925Y0771345D01*
X0778911Y0771445D01*
X0778901Y0771547D01*
X0778895Y0771648D01*
X0778893Y0771750D01*
X0778893Y0761750D02*
X0778895Y0761852D01*
X0778901Y0761953D01*
X0778911Y0762055D01*
X0778925Y0762155D01*
X0778942Y0762255D01*
X0778964Y0762355D01*
X0778990Y0762453D01*
X0779019Y0762551D01*
X0779052Y0762647D01*
X0779089Y0762742D01*
X0779130Y0762835D01*
X0779174Y0762927D01*
X0779221Y0763017D01*
X0779273Y0763105D01*
X0779327Y0763190D01*
X0779385Y0763274D01*
X0779446Y0763355D01*
X0779510Y0763434D01*
X0779577Y0763511D01*
X0779648Y0763584D01*
X0779721Y0763655D01*
X0779796Y0763723D01*
X0779875Y0763788D01*
X0779955Y0763850D01*
X0780038Y0763909D01*
X0780124Y0763964D01*
X0780211Y0764016D01*
X0780301Y0764065D01*
X0780392Y0764110D01*
X0780485Y0764151D01*
X0780579Y0764189D01*
X0780675Y0764223D01*
X0780772Y0764253D01*
X0780870Y0764280D01*
X0780970Y0764302D01*
X0781070Y0764321D01*
X0781170Y0764336D01*
X0781271Y0764347D01*
X0781373Y0764354D01*
X0781475Y0764357D01*
X0781576Y0764356D01*
X0781678Y0764351D01*
X0781779Y0764342D01*
X0781880Y0764329D01*
X0781981Y0764312D01*
X0782080Y0764292D01*
X0782179Y0764267D01*
X0782277Y0764239D01*
X0782373Y0764206D01*
X0782468Y0764171D01*
X0782562Y0764131D01*
X0782654Y0764088D01*
X0782744Y0764041D01*
X0782833Y0763991D01*
X0782919Y0763937D01*
X0783003Y0763880D01*
X0783085Y0763820D01*
X0783165Y0763756D01*
X0783242Y0763690D01*
X0783316Y0763620D01*
X0783388Y0763548D01*
X0783457Y0763473D01*
X0783522Y0763395D01*
X0783585Y0763315D01*
X0783644Y0763233D01*
X0783701Y0763148D01*
X0783753Y0763061D01*
X0783803Y0762972D01*
X0783849Y0762881D01*
X0783891Y0762789D01*
X0783930Y0762695D01*
X0783965Y0762599D01*
X0783996Y0762502D01*
X0784024Y0762404D01*
X0784047Y0762305D01*
X0784067Y0762205D01*
X0784083Y0762105D01*
X0784095Y0762004D01*
X0784103Y0761903D01*
X0784107Y0761801D01*
X0784107Y0761699D01*
X0784103Y0761597D01*
X0784095Y0761496D01*
X0784083Y0761395D01*
X0784067Y0761295D01*
X0784047Y0761195D01*
X0784024Y0761096D01*
X0783996Y0760998D01*
X0783965Y0760901D01*
X0783930Y0760805D01*
X0783891Y0760711D01*
X0783849Y0760619D01*
X0783803Y0760528D01*
X0783753Y0760439D01*
X0783701Y0760352D01*
X0783644Y0760267D01*
X0783585Y0760185D01*
X0783522Y0760105D01*
X0783457Y0760027D01*
X0783388Y0759952D01*
X0783316Y0759880D01*
X0783242Y0759810D01*
X0783165Y0759744D01*
X0783085Y0759680D01*
X0783003Y0759620D01*
X0782919Y0759563D01*
X0782833Y0759509D01*
X0782744Y0759459D01*
X0782654Y0759412D01*
X0782562Y0759369D01*
X0782468Y0759329D01*
X0782373Y0759294D01*
X0782277Y0759261D01*
X0782179Y0759233D01*
X0782080Y0759208D01*
X0781981Y0759188D01*
X0781880Y0759171D01*
X0781779Y0759158D01*
X0781678Y0759149D01*
X0781576Y0759144D01*
X0781475Y0759143D01*
X0781373Y0759146D01*
X0781271Y0759153D01*
X0781170Y0759164D01*
X0781070Y0759179D01*
X0780970Y0759198D01*
X0780870Y0759220D01*
X0780772Y0759247D01*
X0780675Y0759277D01*
X0780579Y0759311D01*
X0780485Y0759349D01*
X0780392Y0759390D01*
X0780301Y0759435D01*
X0780211Y0759484D01*
X0780124Y0759536D01*
X0780038Y0759591D01*
X0779955Y0759650D01*
X0779875Y0759712D01*
X0779796Y0759777D01*
X0779721Y0759845D01*
X0779648Y0759916D01*
X0779577Y0759989D01*
X0779510Y0760066D01*
X0779446Y0760145D01*
X0779385Y0760226D01*
X0779327Y0760310D01*
X0779273Y0760395D01*
X0779221Y0760483D01*
X0779174Y0760573D01*
X0779130Y0760665D01*
X0779089Y0760758D01*
X0779052Y0760853D01*
X0779019Y0760949D01*
X0778990Y0761047D01*
X0778964Y0761145D01*
X0778942Y0761245D01*
X0778925Y0761345D01*
X0778911Y0761445D01*
X0778901Y0761547D01*
X0778895Y0761648D01*
X0778893Y0761750D01*
X1412993Y0425250D02*
X1412995Y0425352D01*
X1413001Y0425453D01*
X1413011Y0425555D01*
X1413025Y0425655D01*
X1413042Y0425755D01*
X1413064Y0425855D01*
X1413090Y0425953D01*
X1413119Y0426051D01*
X1413152Y0426147D01*
X1413189Y0426242D01*
X1413230Y0426335D01*
X1413274Y0426427D01*
X1413321Y0426517D01*
X1413373Y0426605D01*
X1413427Y0426690D01*
X1413485Y0426774D01*
X1413546Y0426855D01*
X1413610Y0426934D01*
X1413677Y0427011D01*
X1413748Y0427084D01*
X1413821Y0427155D01*
X1413896Y0427223D01*
X1413975Y0427288D01*
X1414055Y0427350D01*
X1414138Y0427409D01*
X1414224Y0427464D01*
X1414311Y0427516D01*
X1414401Y0427565D01*
X1414492Y0427610D01*
X1414585Y0427651D01*
X1414679Y0427689D01*
X1414775Y0427723D01*
X1414872Y0427753D01*
X1414970Y0427780D01*
X1415070Y0427802D01*
X1415170Y0427821D01*
X1415270Y0427836D01*
X1415371Y0427847D01*
X1415473Y0427854D01*
X1415575Y0427857D01*
X1415676Y0427856D01*
X1415778Y0427851D01*
X1415879Y0427842D01*
X1415980Y0427829D01*
X1416081Y0427812D01*
X1416180Y0427792D01*
X1416279Y0427767D01*
X1416377Y0427739D01*
X1416473Y0427706D01*
X1416568Y0427671D01*
X1416662Y0427631D01*
X1416754Y0427588D01*
X1416844Y0427541D01*
X1416933Y0427491D01*
X1417019Y0427437D01*
X1417103Y0427380D01*
X1417185Y0427320D01*
X1417265Y0427256D01*
X1417342Y0427190D01*
X1417416Y0427120D01*
X1417488Y0427048D01*
X1417557Y0426973D01*
X1417622Y0426895D01*
X1417685Y0426815D01*
X1417744Y0426733D01*
X1417801Y0426648D01*
X1417853Y0426561D01*
X1417903Y0426472D01*
X1417949Y0426381D01*
X1417991Y0426289D01*
X1418030Y0426195D01*
X1418065Y0426099D01*
X1418096Y0426002D01*
X1418124Y0425904D01*
X1418147Y0425805D01*
X1418167Y0425705D01*
X1418183Y0425605D01*
X1418195Y0425504D01*
X1418203Y0425403D01*
X1418207Y0425301D01*
X1418207Y0425199D01*
X1418203Y0425097D01*
X1418195Y0424996D01*
X1418183Y0424895D01*
X1418167Y0424795D01*
X1418147Y0424695D01*
X1418124Y0424596D01*
X1418096Y0424498D01*
X1418065Y0424401D01*
X1418030Y0424305D01*
X1417991Y0424211D01*
X1417949Y0424119D01*
X1417903Y0424028D01*
X1417853Y0423939D01*
X1417801Y0423852D01*
X1417744Y0423767D01*
X1417685Y0423685D01*
X1417622Y0423605D01*
X1417557Y0423527D01*
X1417488Y0423452D01*
X1417416Y0423380D01*
X1417342Y0423310D01*
X1417265Y0423244D01*
X1417185Y0423180D01*
X1417103Y0423120D01*
X1417019Y0423063D01*
X1416933Y0423009D01*
X1416844Y0422959D01*
X1416754Y0422912D01*
X1416662Y0422869D01*
X1416568Y0422829D01*
X1416473Y0422794D01*
X1416377Y0422761D01*
X1416279Y0422733D01*
X1416180Y0422708D01*
X1416081Y0422688D01*
X1415980Y0422671D01*
X1415879Y0422658D01*
X1415778Y0422649D01*
X1415676Y0422644D01*
X1415575Y0422643D01*
X1415473Y0422646D01*
X1415371Y0422653D01*
X1415270Y0422664D01*
X1415170Y0422679D01*
X1415070Y0422698D01*
X1414970Y0422720D01*
X1414872Y0422747D01*
X1414775Y0422777D01*
X1414679Y0422811D01*
X1414585Y0422849D01*
X1414492Y0422890D01*
X1414401Y0422935D01*
X1414311Y0422984D01*
X1414224Y0423036D01*
X1414138Y0423091D01*
X1414055Y0423150D01*
X1413975Y0423212D01*
X1413896Y0423277D01*
X1413821Y0423345D01*
X1413748Y0423416D01*
X1413677Y0423489D01*
X1413610Y0423566D01*
X1413546Y0423645D01*
X1413485Y0423726D01*
X1413427Y0423810D01*
X1413373Y0423895D01*
X1413321Y0423983D01*
X1413274Y0424073D01*
X1413230Y0424165D01*
X1413189Y0424258D01*
X1413152Y0424353D01*
X1413119Y0424449D01*
X1413090Y0424547D01*
X1413064Y0424645D01*
X1413042Y0424745D01*
X1413025Y0424845D01*
X1413011Y0424945D01*
X1413001Y0425047D01*
X1412995Y0425148D01*
X1412993Y0425250D01*
X1423000Y0425250D02*
X1423002Y0425351D01*
X1423008Y0425453D01*
X1423018Y0425554D01*
X1423032Y0425654D01*
X1423049Y0425754D01*
X1423071Y0425853D01*
X1423096Y0425951D01*
X1423126Y0426049D01*
X1423159Y0426145D01*
X1423195Y0426239D01*
X1423236Y0426332D01*
X1423280Y0426424D01*
X1423327Y0426513D01*
X1423379Y0426601D01*
X1423433Y0426687D01*
X1423491Y0426770D01*
X1423552Y0426851D01*
X1423616Y0426930D01*
X1423683Y0427006D01*
X1423753Y0427079D01*
X1423825Y0427150D01*
X1423901Y0427218D01*
X1423979Y0427283D01*
X1424059Y0427344D01*
X1424142Y0427403D01*
X1424227Y0427458D01*
X1424315Y0427510D01*
X1424404Y0427559D01*
X1424495Y0427603D01*
X1424587Y0427645D01*
X1424682Y0427682D01*
X1424777Y0427716D01*
X1424874Y0427747D01*
X1424972Y0427773D01*
X1425071Y0427796D01*
X1425171Y0427814D01*
X1425271Y0427829D01*
X1425372Y0427840D01*
X1425473Y0427847D01*
X1425575Y0427850D01*
X1425676Y0427849D01*
X1425777Y0427844D01*
X1425879Y0427835D01*
X1425979Y0427822D01*
X1426079Y0427805D01*
X1426179Y0427785D01*
X1426277Y0427760D01*
X1426374Y0427732D01*
X1426471Y0427700D01*
X1426566Y0427664D01*
X1426659Y0427625D01*
X1426751Y0427581D01*
X1426841Y0427535D01*
X1426929Y0427485D01*
X1427015Y0427431D01*
X1427099Y0427374D01*
X1427181Y0427314D01*
X1427260Y0427251D01*
X1427337Y0427184D01*
X1427411Y0427115D01*
X1427483Y0427043D01*
X1427551Y0426968D01*
X1427617Y0426891D01*
X1427679Y0426811D01*
X1427739Y0426729D01*
X1427795Y0426644D01*
X1427847Y0426557D01*
X1427897Y0426469D01*
X1427943Y0426378D01*
X1427985Y0426286D01*
X1428023Y0426192D01*
X1428058Y0426097D01*
X1428089Y0426000D01*
X1428117Y0425902D01*
X1428140Y0425804D01*
X1428160Y0425704D01*
X1428176Y0425604D01*
X1428188Y0425503D01*
X1428196Y0425402D01*
X1428200Y0425301D01*
X1428200Y0425199D01*
X1428196Y0425098D01*
X1428188Y0424997D01*
X1428176Y0424896D01*
X1428160Y0424796D01*
X1428140Y0424696D01*
X1428117Y0424598D01*
X1428089Y0424500D01*
X1428058Y0424403D01*
X1428023Y0424308D01*
X1427985Y0424214D01*
X1427943Y0424122D01*
X1427897Y0424031D01*
X1427847Y0423943D01*
X1427795Y0423856D01*
X1427739Y0423771D01*
X1427679Y0423689D01*
X1427617Y0423609D01*
X1427551Y0423532D01*
X1427483Y0423457D01*
X1427411Y0423385D01*
X1427337Y0423316D01*
X1427260Y0423249D01*
X1427181Y0423186D01*
X1427099Y0423126D01*
X1427015Y0423069D01*
X1426929Y0423015D01*
X1426841Y0422965D01*
X1426751Y0422919D01*
X1426659Y0422875D01*
X1426566Y0422836D01*
X1426471Y0422800D01*
X1426374Y0422768D01*
X1426277Y0422740D01*
X1426179Y0422715D01*
X1426079Y0422695D01*
X1425979Y0422678D01*
X1425879Y0422665D01*
X1425777Y0422656D01*
X1425676Y0422651D01*
X1425575Y0422650D01*
X1425473Y0422653D01*
X1425372Y0422660D01*
X1425271Y0422671D01*
X1425171Y0422686D01*
X1425071Y0422704D01*
X1424972Y0422727D01*
X1424874Y0422753D01*
X1424777Y0422784D01*
X1424682Y0422818D01*
X1424587Y0422855D01*
X1424495Y0422897D01*
X1424404Y0422941D01*
X1424315Y0422990D01*
X1424227Y0423042D01*
X1424142Y0423097D01*
X1424059Y0423156D01*
X1423979Y0423217D01*
X1423901Y0423282D01*
X1423825Y0423350D01*
X1423753Y0423421D01*
X1423683Y0423494D01*
X1423616Y0423570D01*
X1423552Y0423649D01*
X1423491Y0423730D01*
X1423433Y0423813D01*
X1423379Y0423899D01*
X1423327Y0423987D01*
X1423280Y0424076D01*
X1423236Y0424168D01*
X1423195Y0424261D01*
X1423159Y0424355D01*
X1423126Y0424451D01*
X1423096Y0424549D01*
X1423071Y0424647D01*
X1423049Y0424746D01*
X1423032Y0424846D01*
X1423018Y0424946D01*
X1423008Y0425047D01*
X1423002Y0425149D01*
X1423000Y0425250D01*
X1423000Y0415250D02*
X1423002Y0415351D01*
X1423008Y0415453D01*
X1423018Y0415554D01*
X1423032Y0415654D01*
X1423049Y0415754D01*
X1423071Y0415853D01*
X1423096Y0415951D01*
X1423126Y0416049D01*
X1423159Y0416145D01*
X1423195Y0416239D01*
X1423236Y0416332D01*
X1423280Y0416424D01*
X1423327Y0416513D01*
X1423379Y0416601D01*
X1423433Y0416687D01*
X1423491Y0416770D01*
X1423552Y0416851D01*
X1423616Y0416930D01*
X1423683Y0417006D01*
X1423753Y0417079D01*
X1423825Y0417150D01*
X1423901Y0417218D01*
X1423979Y0417283D01*
X1424059Y0417344D01*
X1424142Y0417403D01*
X1424227Y0417458D01*
X1424315Y0417510D01*
X1424404Y0417559D01*
X1424495Y0417603D01*
X1424587Y0417645D01*
X1424682Y0417682D01*
X1424777Y0417716D01*
X1424874Y0417747D01*
X1424972Y0417773D01*
X1425071Y0417796D01*
X1425171Y0417814D01*
X1425271Y0417829D01*
X1425372Y0417840D01*
X1425473Y0417847D01*
X1425575Y0417850D01*
X1425676Y0417849D01*
X1425777Y0417844D01*
X1425879Y0417835D01*
X1425979Y0417822D01*
X1426079Y0417805D01*
X1426179Y0417785D01*
X1426277Y0417760D01*
X1426374Y0417732D01*
X1426471Y0417700D01*
X1426566Y0417664D01*
X1426659Y0417625D01*
X1426751Y0417581D01*
X1426841Y0417535D01*
X1426929Y0417485D01*
X1427015Y0417431D01*
X1427099Y0417374D01*
X1427181Y0417314D01*
X1427260Y0417251D01*
X1427337Y0417184D01*
X1427411Y0417115D01*
X1427483Y0417043D01*
X1427551Y0416968D01*
X1427617Y0416891D01*
X1427679Y0416811D01*
X1427739Y0416729D01*
X1427795Y0416644D01*
X1427847Y0416557D01*
X1427897Y0416469D01*
X1427943Y0416378D01*
X1427985Y0416286D01*
X1428023Y0416192D01*
X1428058Y0416097D01*
X1428089Y0416000D01*
X1428117Y0415902D01*
X1428140Y0415804D01*
X1428160Y0415704D01*
X1428176Y0415604D01*
X1428188Y0415503D01*
X1428196Y0415402D01*
X1428200Y0415301D01*
X1428200Y0415199D01*
X1428196Y0415098D01*
X1428188Y0414997D01*
X1428176Y0414896D01*
X1428160Y0414796D01*
X1428140Y0414696D01*
X1428117Y0414598D01*
X1428089Y0414500D01*
X1428058Y0414403D01*
X1428023Y0414308D01*
X1427985Y0414214D01*
X1427943Y0414122D01*
X1427897Y0414031D01*
X1427847Y0413943D01*
X1427795Y0413856D01*
X1427739Y0413771D01*
X1427679Y0413689D01*
X1427617Y0413609D01*
X1427551Y0413532D01*
X1427483Y0413457D01*
X1427411Y0413385D01*
X1427337Y0413316D01*
X1427260Y0413249D01*
X1427181Y0413186D01*
X1427099Y0413126D01*
X1427015Y0413069D01*
X1426929Y0413015D01*
X1426841Y0412965D01*
X1426751Y0412919D01*
X1426659Y0412875D01*
X1426566Y0412836D01*
X1426471Y0412800D01*
X1426374Y0412768D01*
X1426277Y0412740D01*
X1426179Y0412715D01*
X1426079Y0412695D01*
X1425979Y0412678D01*
X1425879Y0412665D01*
X1425777Y0412656D01*
X1425676Y0412651D01*
X1425575Y0412650D01*
X1425473Y0412653D01*
X1425372Y0412660D01*
X1425271Y0412671D01*
X1425171Y0412686D01*
X1425071Y0412704D01*
X1424972Y0412727D01*
X1424874Y0412753D01*
X1424777Y0412784D01*
X1424682Y0412818D01*
X1424587Y0412855D01*
X1424495Y0412897D01*
X1424404Y0412941D01*
X1424315Y0412990D01*
X1424227Y0413042D01*
X1424142Y0413097D01*
X1424059Y0413156D01*
X1423979Y0413217D01*
X1423901Y0413282D01*
X1423825Y0413350D01*
X1423753Y0413421D01*
X1423683Y0413494D01*
X1423616Y0413570D01*
X1423552Y0413649D01*
X1423491Y0413730D01*
X1423433Y0413813D01*
X1423379Y0413899D01*
X1423327Y0413987D01*
X1423280Y0414076D01*
X1423236Y0414168D01*
X1423195Y0414261D01*
X1423159Y0414355D01*
X1423126Y0414451D01*
X1423096Y0414549D01*
X1423071Y0414647D01*
X1423049Y0414746D01*
X1423032Y0414846D01*
X1423018Y0414946D01*
X1423008Y0415047D01*
X1423002Y0415149D01*
X1423000Y0415250D01*
X1412993Y0415250D02*
X1412995Y0415352D01*
X1413001Y0415453D01*
X1413011Y0415555D01*
X1413025Y0415655D01*
X1413042Y0415755D01*
X1413064Y0415855D01*
X1413090Y0415953D01*
X1413119Y0416051D01*
X1413152Y0416147D01*
X1413189Y0416242D01*
X1413230Y0416335D01*
X1413274Y0416427D01*
X1413321Y0416517D01*
X1413373Y0416605D01*
X1413427Y0416690D01*
X1413485Y0416774D01*
X1413546Y0416855D01*
X1413610Y0416934D01*
X1413677Y0417011D01*
X1413748Y0417084D01*
X1413821Y0417155D01*
X1413896Y0417223D01*
X1413975Y0417288D01*
X1414055Y0417350D01*
X1414138Y0417409D01*
X1414224Y0417464D01*
X1414311Y0417516D01*
X1414401Y0417565D01*
X1414492Y0417610D01*
X1414585Y0417651D01*
X1414679Y0417689D01*
X1414775Y0417723D01*
X1414872Y0417753D01*
X1414970Y0417780D01*
X1415070Y0417802D01*
X1415170Y0417821D01*
X1415270Y0417836D01*
X1415371Y0417847D01*
X1415473Y0417854D01*
X1415575Y0417857D01*
X1415676Y0417856D01*
X1415778Y0417851D01*
X1415879Y0417842D01*
X1415980Y0417829D01*
X1416081Y0417812D01*
X1416180Y0417792D01*
X1416279Y0417767D01*
X1416377Y0417739D01*
X1416473Y0417706D01*
X1416568Y0417671D01*
X1416662Y0417631D01*
X1416754Y0417588D01*
X1416844Y0417541D01*
X1416933Y0417491D01*
X1417019Y0417437D01*
X1417103Y0417380D01*
X1417185Y0417320D01*
X1417265Y0417256D01*
X1417342Y0417190D01*
X1417416Y0417120D01*
X1417488Y0417048D01*
X1417557Y0416973D01*
X1417622Y0416895D01*
X1417685Y0416815D01*
X1417744Y0416733D01*
X1417801Y0416648D01*
X1417853Y0416561D01*
X1417903Y0416472D01*
X1417949Y0416381D01*
X1417991Y0416289D01*
X1418030Y0416195D01*
X1418065Y0416099D01*
X1418096Y0416002D01*
X1418124Y0415904D01*
X1418147Y0415805D01*
X1418167Y0415705D01*
X1418183Y0415605D01*
X1418195Y0415504D01*
X1418203Y0415403D01*
X1418207Y0415301D01*
X1418207Y0415199D01*
X1418203Y0415097D01*
X1418195Y0414996D01*
X1418183Y0414895D01*
X1418167Y0414795D01*
X1418147Y0414695D01*
X1418124Y0414596D01*
X1418096Y0414498D01*
X1418065Y0414401D01*
X1418030Y0414305D01*
X1417991Y0414211D01*
X1417949Y0414119D01*
X1417903Y0414028D01*
X1417853Y0413939D01*
X1417801Y0413852D01*
X1417744Y0413767D01*
X1417685Y0413685D01*
X1417622Y0413605D01*
X1417557Y0413527D01*
X1417488Y0413452D01*
X1417416Y0413380D01*
X1417342Y0413310D01*
X1417265Y0413244D01*
X1417185Y0413180D01*
X1417103Y0413120D01*
X1417019Y0413063D01*
X1416933Y0413009D01*
X1416844Y0412959D01*
X1416754Y0412912D01*
X1416662Y0412869D01*
X1416568Y0412829D01*
X1416473Y0412794D01*
X1416377Y0412761D01*
X1416279Y0412733D01*
X1416180Y0412708D01*
X1416081Y0412688D01*
X1415980Y0412671D01*
X1415879Y0412658D01*
X1415778Y0412649D01*
X1415676Y0412644D01*
X1415575Y0412643D01*
X1415473Y0412646D01*
X1415371Y0412653D01*
X1415270Y0412664D01*
X1415170Y0412679D01*
X1415070Y0412698D01*
X1414970Y0412720D01*
X1414872Y0412747D01*
X1414775Y0412777D01*
X1414679Y0412811D01*
X1414585Y0412849D01*
X1414492Y0412890D01*
X1414401Y0412935D01*
X1414311Y0412984D01*
X1414224Y0413036D01*
X1414138Y0413091D01*
X1414055Y0413150D01*
X1413975Y0413212D01*
X1413896Y0413277D01*
X1413821Y0413345D01*
X1413748Y0413416D01*
X1413677Y0413489D01*
X1413610Y0413566D01*
X1413546Y0413645D01*
X1413485Y0413726D01*
X1413427Y0413810D01*
X1413373Y0413895D01*
X1413321Y0413983D01*
X1413274Y0414073D01*
X1413230Y0414165D01*
X1413189Y0414258D01*
X1413152Y0414353D01*
X1413119Y0414449D01*
X1413090Y0414547D01*
X1413064Y0414645D01*
X1413042Y0414745D01*
X1413025Y0414845D01*
X1413011Y0414945D01*
X1413001Y0415047D01*
X1412995Y0415148D01*
X1412993Y0415250D01*
M02*
